<svg xmlns="http://www.w3.org/2000/svg" viewBox="0 0 32 32"><g id="blender"><path d="M25.32,9.72A2.14,2.14,0,0,0,23.72,9H21.87L22,7.07s0,0,0,0,0,0,0,0a5,5,0,0,0-5-5H13A5,5,0,0,0,9.69,3.25,1,1,0,1,0,11,4.75,3,3,0,0,1,13,4h4a3,3,0,0,1,2.83,2H9a.94.94,0,0,0-.34.07l-.09,0a1,1,0,0,0-.25.16l0,0a.76.76,0,0,0-.17.23l0,0,0,.08A.79.79,0,0,0,8,7S8,7,8,7V7a1.37,1.37,0,0,0,.07.34l0,.08a.39.39,0,0,0,.06.11L10,10.34,11,21.39a2.44,2.44,0,0,0-1.12,1.7L9,28.86a1,1,0,0,0,.23.8A1,1,0,0,0,10,30H22a1,1,0,0,0,.76-.34,1,1,0,0,0,.23-.8l-.82-5.77A2.47,2.47,0,0,0,21,21.38L21.2,19H23a2.14,2.14,0,0,0,2.12-1.86l.71-5.75A2.13,2.13,0,0,0,25.32,9.72ZM11.15,28l.66-4.62a.44.44,0,0,1,.44-.38H16a1,1,0,0,0,0-2H12.92l-.17-2H14a1,1,0,0,0,0-2H12.59l-.09-1H14a1,1,0,0,0,0-2H12.34l-.09-1H14a1,1,0,0,0,0-2H12.09L12,9.92a1,1,0,0,0-.17-.47L10.87,8h9.06L19,21.3a1,1,0,0,0-.29.7,1,1,0,0,0,1,1,.44.44,0,0,1,.44.38L20.85,28Zm12-11.11A.13.13,0,0,1,23,17H21.34l.4-6h2a.13.13,0,0,1,.1,0,.17.17,0,0,1,0,.1Z"/><path d="M16,25h0a1,1,0,1,0,1,1A1,1,0,0,0,16,25Z"/></g></svg>