<svg width="82" height="82" viewBox="0 0 82 82" fill="none" xmlns="http://www.w3.org/2000/svg">
<path fill-rule="evenodd" clip-rule="evenodd" d="M71 2H11C6.02944 2 2 6.02944 2 11V71C2 75.9706 6.02944 80 11 80H71C75.9706 80 80 75.9706 80 71V11C80 6.02944 75.9706 2 71 2ZM11 1C5.47715 1 1 5.47715 1 11V71C1 76.5229 5.47715 81 11 81H71C76.5229 81 81 76.5229 81 71V11C81 5.47715 76.5229 1 71 1H11Z" fill="#FF8908" stroke="#77838F" stroke-width="2"/>
<path d="M59.2062 26.4349C58.7751 25.9489 58.2459 25.5597 57.6534 25.2931C57.061 25.0265 56.4188 24.8885 55.7691 24.8882H51.795L52.0743 20.7423C52.0743 17.8937 50.9426 15.1617 48.9283 13.1474C46.9141 11.1331 44.1821 10.0015 41.3335 10.0015H32.7408C30.142 9.95829 27.6158 10.8589 25.6304 12.5363C25.3882 12.7113 25.1852 12.9349 25.0343 13.1928C24.8835 13.4506 24.788 13.7371 24.7542 14.034C24.7203 14.3308 24.7487 14.6315 24.8376 14.9167C24.9265 15.202 25.074 15.4655 25.2705 15.6906C25.467 15.9156 25.7083 16.0972 25.979 16.2237C26.2497 16.3502 26.5438 16.4188 26.8425 16.4252C27.1412 16.4316 27.4379 16.3756 27.7138 16.2608C27.9896 16.146 28.2385 15.975 28.4445 15.7586C29.6304 14.7126 31.1595 14.1392 32.7408 14.1474H41.3335C42.6667 14.1467 43.9674 14.5596 45.0562 15.329C46.145 16.0985 46.9683 17.1867 47.4127 18.4438H24.1482C23.8975 18.4481 23.6498 18.4991 23.4178 18.5941H23.2245C23.0293 18.6813 22.8483 18.7972 22.6874 18.9378C22.5355 19.0779 22.4116 19.2456 22.3222 19.4319V19.6038C22.1141 19.8913 22.0014 20.2369 22 20.5919C22.019 20.8408 22.0695 21.0862 22.1504 21.3223V21.4941C22.1803 21.5793 22.2238 21.6591 22.2793 21.7304L26.2963 27.7668L28.4445 51.504C27.8042 51.9035 27.2577 52.4367 26.8425 53.067C26.4272 53.6973 26.153 54.4098 26.0385 55.1558L24.1482 67.5507C24.1023 67.8559 24.1226 68.1673 24.2079 68.4638C24.2931 68.7604 24.4413 69.0351 24.6422 69.2693C24.8483 69.5039 25.103 69.6908 25.3887 69.817C25.6744 69.9431 25.9841 70.0054 26.2963 69.9996H52.0743C52.3829 70.0023 52.6885 69.9385 52.9702 69.8124C53.2519 69.6864 53.5032 69.5011 53.7069 69.2693C53.9078 69.0351 54.056 68.7604 54.1412 68.4638C54.2265 68.1673 54.2468 67.8559 54.2009 67.5507L52.4394 55.1558C52.3115 54.3981 52.0205 53.6771 51.5866 53.0429C51.1526 52.4086 50.5861 51.8762 49.9261 51.4825L50.3557 46.3699H54.2224C55.3369 46.369 56.4131 45.9634 57.2508 45.2284C58.0885 44.4934 58.6307 43.4791 58.7765 42.3743L60.3017 30.0223C60.3829 29.3809 60.3273 28.7296 60.1384 28.1112C59.9496 27.4929 59.6319 26.9215 59.2062 26.4349ZM28.7667 65.7033L30.1845 55.7788C30.2158 55.5511 30.3291 55.3426 30.5031 55.1923C30.677 55.0421 30.8998 54.9604 31.1297 54.9625H39.1853C39.755 54.9625 40.3014 54.7362 40.7043 54.3333C41.1071 53.9305 41.3335 53.3841 41.3335 52.8143C41.3335 52.2446 41.1071 51.6982 40.7043 51.2954C40.3014 50.8925 39.755 50.6662 39.1853 50.6662H32.569L32.2038 46.3699H34.889C35.4587 46.3699 36.0051 46.1435 36.4079 45.7407C36.8108 45.3378 37.0371 44.7914 37.0371 44.2217C37.0371 43.652 36.8108 43.1056 36.4079 42.7027C36.0051 42.2999 35.4587 42.0735 34.889 42.0735H31.8601L31.6667 39.9254H34.889C35.4587 39.9254 36.0051 39.699 36.4079 39.2962C36.8108 38.8933 37.0371 38.3469 37.0371 37.7772C37.0371 37.2075 36.8108 36.6611 36.4079 36.2582C36.0051 35.8554 35.4587 35.629 34.889 35.629H31.323L31.1297 33.4809H34.889C35.4587 33.4809 36.0051 33.2546 36.4079 32.8517C36.8108 32.4488 37.0371 31.9025 37.0371 31.3327C37.0371 30.763 36.8108 30.2166 36.4079 29.8137C36.0051 29.4109 35.4587 29.1846 34.889 29.1846H30.786L30.5926 26.8646C30.5583 26.5025 30.4327 26.1551 30.2275 25.8549L28.1652 22.7401H47.6276L45.6298 51.3106C45.2329 51.7107 45.0092 52.2508 45.0068 52.8143C45.0068 53.3841 45.2331 53.9305 45.636 54.3333C46.0388 54.7362 46.5852 54.9625 47.155 54.9625C47.3848 54.9604 47.6076 55.0421 47.7816 55.1923C47.9556 55.3426 48.0688 55.5511 48.1002 55.7788L49.6039 65.7033H28.7667ZM54.5446 41.8372C54.5394 41.8741 54.5269 41.9095 54.5078 41.9415C54.4886 41.9734 54.4633 42.0012 54.4333 42.0232C54.4033 42.0453 54.3691 42.061 54.3329 42.0697C54.2967 42.0783 54.2591 42.0796 54.2224 42.0735H50.6565L51.5157 29.1846H55.8121C55.8461 29.1704 55.8826 29.1631 55.9195 29.1631C55.9563 29.1631 55.9928 29.1704 56.0269 29.1846C56.0484 29.2546 56.0484 29.3294 56.0269 29.3994L54.5446 41.8372Z" fill="#77838F"/>
<path d="M39.1853 59.2583C38.7604 59.2583 38.3451 59.3843 37.9918 59.6203C37.6386 59.8564 37.3632 60.1919 37.2006 60.5844C37.038 60.9769 36.9955 61.4088 37.0784 61.8255C37.1613 62.2423 37.3659 62.625 37.6663 62.9254C37.9667 63.2259 38.3495 63.4305 38.7662 63.5133C39.1829 63.5962 39.6148 63.5537 40.0073 63.3911C40.3999 63.2285 40.7354 62.9532 40.9714 62.5999C41.2074 62.2467 41.3334 61.8313 41.3334 61.4065C41.3334 60.8367 41.1071 60.2903 40.7043 59.8875C40.3014 59.4846 39.755 59.2583 39.1853 59.2583Z" fill="#77838F"/>
</svg>
