<svg xmlns="http://www.w3.org/2000/svg" width="128" height="128" viewBox="0 0 128 128">
  <title>CHEESE</title>
  <g>
    <path d="M121.755,83.781a1.751,1.751,0,0,0,1.5-1.731V63.76a1.751,1.751,0,0,0-.927-1.545L87.843,43.846a1.75,1.75,0,0,0-2.392.77A2.711,2.711,0,0,1,83,46.13a2.753,2.753,0,0,1-2.75-2.75,2.644,2.644,0,0,1,.351-1.337,1.751,1.751,0,0,0-.688-2.427l-31.84-16.97a1.747,1.747,0,0,0-1.057-.19C33.78,24.245,11.343,37.035,4.868,53.8a1.739,1.739,0,0,0-.118.63V94.24a1.75,1.75,0,0,0,1.608,1.744l7.23.59a1.758,1.758,0,0,0,1.882-1.553,4.248,4.248,0,0,1,8.47.479l0,.129a1.75,1.75,0,0,0,1.6,1.915l95.819,7.77c.048,0,.095.006.142.006a1.75,1.75,0,0,0,1.75-1.75V90.95a1.751,1.751,0,0,0-1.5-1.731,2.751,2.751,0,0,1,0-5.438ZM46.935,26.005,76.907,41.98A6.257,6.257,0,0,0,83,49.63a6.2,6.2,0,0,0,4.56-1.97l25.663,13.673L9.1,52.885C15.977,38.81,35.351,27.831,46.935,26.005ZM115.92,86.5a6.292,6.292,0,0,0,3.83,5.762v9.41L27.327,94.178a7.752,7.752,0,0,0-14.962-1.215L8.25,92.627v-36.3l111.5,9.045V80.738A6.292,6.292,0,0,0,115.92,86.5Z"/>
    <path d="M28.592,40.135a1.744,1.744,0,0,0,.963-.29c1.708-1.128,3.486-2.183,5.284-3.137A1.75,1.75,0,1,0,33.2,33.616c-1.9,1.005-3.773,2.118-5.574,3.309a1.75,1.75,0,0,0,.966,3.21Z"/>
    <path d="M89,83.25a6.25,6.25,0,1,0,6.25,6.25A6.257,6.257,0,0,0,89,83.25Zm0,9a2.75,2.75,0,1,1,2.75-2.75A2.752,2.752,0,0,1,89,92.25Z"/>
    <path d="M69.447,68.25A6.25,6.25,0,1,0,75.7,74.5,6.257,6.257,0,0,0,69.447,68.25Zm0,9A2.75,2.75,0,1,1,72.2,74.5,2.752,2.752,0,0,1,69.447,77.25Z"/>
    <path d="M102.5,67.75a4.75,4.75,0,1,0,4.75,4.75A4.756,4.756,0,0,0,102.5,67.75Zm0,6a1.25,1.25,0,1,1,1.25-1.25A1.252,1.252,0,0,1,102.5,73.75Z"/>
    <path d="M51.625,49.75A4.75,4.75,0,1,0,46.875,45,4.756,4.756,0,0,0,51.625,49.75Zm0-6A1.25,1.25,0,1,1,50.375,45,1.252,1.252,0,0,1,51.625,43.75Z"/>
    <path d="M46.75,81.75A4.75,4.75,0,1,0,51.5,86.5,4.756,4.756,0,0,0,46.75,81.75Zm0,6A1.25,1.25,0,1,1,48,86.5,1.252,1.252,0,0,1,46.75,87.75Z"/>
    <path d="M29.567,64.75a4.75,4.75,0,1,0,4.75,4.75A4.756,4.756,0,0,0,29.567,64.75Zm0,6a1.25,1.25,0,1,1,1.25-1.25A1.252,1.252,0,0,1,29.567,70.75Z"/>
  </g>
</svg>
