<svg width="28" height="25" viewBox="0 0 28 25" fill="none" xmlns="http://www.w3.org/2000/svg">
<path d="M25.0687 1.75686C21.9078 -0.884795 17.0242 -0.488004 14 2.57218C10.9758 -0.488004 6.09219 -0.890231 2.93125 1.75686C-1.18124 5.19753 -0.579681 10.807 2.35157 13.7802L11.9437 23.4934C12.4906 24.0478 13.2234 24.3577 14 24.3577C14.782 24.3577 15.5094 24.0533 16.0562 23.4989L25.6484 13.7856C28.5742 10.8124 29.1867 5.20296 25.0687 1.75686ZM23.7781 11.9484L14.1859 21.6617C14.0547 21.7921 13.9453 21.7921 13.8141 21.6617L4.22188 11.9484C2.22579 9.92641 1.8211 6.09982 4.6211 3.75712C6.74844 1.97971 10.0297 2.24605 12.0859 4.32785L14 6.26832L15.9141 4.32785C17.9812 2.23518 21.2625 1.97971 23.3789 3.75169C26.1734 6.09439 25.7578 9.94272 23.7781 11.9484Z" fill="#979797"/>
</svg>
