<?xml version="1.0" encoding="iso-8859-1"?>
<!-- Generator: Adobe Illustrator 19.0.0, SVG Export Plug-In . SVG Version: 6.00 Build 0)  -->
<svg version="1.1" id="Layer_1" xmlns="http://www.w3.org/2000/svg" xmlns:xlink="http://www.w3.org/1999/xlink" x="0px" y="0px"
	 viewBox="0 0 295.239 295.239" style="enable-background:new 0 0 295.239 295.239;" xml:space="preserve">
<g>
	<g>
		<g>
			<path d="M238.096,170.571V79.229c0-9.538-5.662-18.129-14.433-21.886c-12.148-5.21-24.881-8.305-37.948-9.319v-38.5h9.524V0
				h-9.524h-4.762h-66.667h-4.762h-9.523v9.524h9.524v38.495c-13.071,1.014-25.8,4.114-37.952,9.324
				C62.805,61.1,57.144,69.69,57.144,79.229v91.343c-6.305,16.09-9.524,33.01-9.524,50.31v60.071h9.524v14.286h28.571v-14.286
				h123.81v14.286h28.571v-14.286h9.524v-60.072C247.62,203.581,244.401,186.662,238.096,170.571z M219.91,66.095
				c2.658,1.138,4.834,3.019,6.343,5.334h-54.824V57.143h4.862C191.371,57.143,206.048,60.153,219.91,66.095z M119.048,9.524h57.143
				v38.095h-4.762h-47.619h-4.762V9.524z M133.334,71.429V57.143h28.571v14.286H133.334z M161.906,80.952v23.81h-28.571v-23.81
				H161.906z M75.32,66.095c13.862-5.943,28.538-8.952,43.619-8.952h4.871v14.286H68.987C70.495,69.114,72.667,67.233,75.32,66.095z
				 M66.667,80.952h57.143v33.333h47.619V80.952h57.143v85.714H66.667V80.952z M76.191,285.714h-9.524v-4.762h9.524V285.714z
				 M228.571,285.714h-9.524v-4.762h9.524V285.714z M238.097,252.381h-52.381v9.524h52.381v9.524h-28.572H85.714H57.144v-9.524
				h52.381v-9.524H57.144v-31.5c0-15.338,2.7-30.357,8.029-44.69h164.9c5.324,14.333,8.024,29.352,8.024,44.69V252.381z"/>
			<path d="M147.62,185.714c-21.005,0-38.095,17.09-38.095,38.095s17.09,38.095,38.095,38.095s38.095-17.09,38.095-38.095
				S168.625,185.714,147.62,185.714z M142.859,251.953c-13.491-2.282-23.81-14.015-23.81-28.143
				c0-14.129,10.319-25.862,23.81-28.143V251.953z M152.381,251.952v-56.286c13.49,2.276,23.81,14.01,23.81,28.143
				C176.191,237.942,165.872,249.671,152.381,251.952z"/>
			<rect x="80.953" y="147.619" width="38.095" height="9.524"/>
			<rect x="128.571" y="147.619" width="38.095" height="9.524"/>
			<rect x="176.191" y="147.619" width="38.095" height="9.524"/>
			<rect x="104.763" y="133.333" width="38.095" height="9.524"/>
			<rect x="152.381" y="133.333" width="38.095" height="9.524"/>
		</g>
	</g>
</g>
<g>
</g>
<g>
</g>
<g>
</g>
<g>
</g>
<g>
</g>
<g>
</g>
<g>
</g>
<g>
</g>
<g>
</g>
<g>
</g>
<g>
</g>
<g>
</g>
<g>
</g>
<g>
</g>
<g>
</g>
</svg>
