<?xml version="1.0" encoding="UTF-8" standalone="no"?>
<svg
   width="128"
   height="128"
   viewBox="0 0 128 128"
   version="1.1"
   id="svg311"
   sodipodi:docname="MEAT.svg"
   inkscape:version="1.1 (c68e22c387, 2021-05-23)"
   xmlns:inkscape="http://www.inkscape.org/namespaces/inkscape"
   xmlns:sodipodi="http://sodipodi.sourceforge.net/DTD/sodipodi-0.dtd"
   xmlns="http://www.w3.org/2000/svg"
   xmlns:svg="http://www.w3.org/2000/svg"
   xmlns:rdf="http://www.w3.org/1999/02/22-rdf-syntax-ns#"
   xmlns:cc="http://creativecommons.org/ns#"
   xmlns:dc="http://purl.org/dc/elements/1.1/">
  <defs
     id="defs315" />
  <sodipodi:namedview
     id="namedview313"
     pagecolor="#ffffff"
     bordercolor="#666666"
     borderopacity="1.0"
     inkscape:pageshadow="2"
     inkscape:pageopacity="0.0"
     inkscape:pagecheckerboard="0"
     showgrid="false"
     inkscape:zoom="6.34375"
     inkscape:cx="8.591133"
     inkscape:cy="64.078818"
     inkscape:window-width="1920"
     inkscape:window-height="1001"
     inkscape:window-x="-9"
     inkscape:window-y="-9"
     inkscape:window-maximized="1"
     inkscape:current-layer="g309" />
  <title
     id="title299">MEAT</title>
  <g
     id="g309"
     transform="translate(-1.5763547,-2.2068965)">
    <g
       id="g786"
       transform="translate(37.820368,2.9641552)">
      <path
         d="m 78.148418,45.724632 a 41.578,41.578 0 0 0 -15.323,-31.983 v 0 c -10.963,-8.8129996 -23.79,-11.8589996 -35.193,-8.3589996 A 31.051,31.051 0 0 0 6.9244176,26.393632 c -9.1,30.4 -12.051,36.914 -21.0429996,46.475 a 30.47,30.47 0 0 0 -8.172,25.747 28.736,28.736 0 0 0 14.6789996,20.821998 22.675,22.675 0 0 0 11.142,3.084 c 11.1190004,0 24.8450004,-8.781 49.9610004,-30.244998 20.691,-17.684 24.828,-35.076 24.657,-46.552 z m -26.93,43.891 c -32.5,27.778998 -44.7880004,33.531998 -57.1470004,26.753998 a 25.259,25.259 0 0 1 -12.9059996,-18.299998 27,27 0 0 1 7.266,-22.8 c 9.4789996,-10.079 12.54199958,-16.79 21.842,-47.857 a 27.591,27.591 0 0 1 18.386,-18.6829996 28.9,28.9 0 0 1 8.511,-1.263 c 7.9,0 16.113,3.0999996 23.462,8.9999996 v 0 a 38.086,38.086 0 0 1 14.016,29.311 c 0.161,10.726 -3.774,27.038 -23.43,43.838 z"
         id="path301" />
      <path
         id="path303"
         d="M 37.203333,9.9937509 A 25.22,25.22 0 0 0 12.674036,28.146094 c -8.766,29.28 -12.11282804,37.899282 -22.423828,48.863281 a 24.513,24.513 0 0 0 -6.617187,20.695313 22.769,22.769 0 0 0 11.638671,16.500012 16.6,16.6 0 0 0 8.199219,2.28906 c 9.1,0 21.601047,-7.792 46.123047,-28.75001 18.919,-16.168999 22.707688,-31.71039 22.554687,-41.90039 A 35.6,35.6 0 0 0 59.066614,18.444923 C 52.187614,12.915922 44.628333,9.9937509 37.203333,9.9937509 Z M 36.191614,21.68711 a 7.759,7.759 0 0 1 7.75,7.75 7.75,7.75 0 1 1 -7.75,-7.75 z m -0.208984,3.505859 a 4.25,4.25 0 0 0 -0.621094,0.07617 4.25,4.25 0 0 0 0.830078,8.417969 4.255,4.255 0 0 0 4.25,-4.25 4.25,4.25 0 0 0 -4.458984,-4.244141 z m 17.841797,45.378906 a 1.749,1.749 0 0 1 1.28125,0.386719 1.75,1.75 0 0 1 0.248047,2.462891 71.9,71.9 0 0 1 -5.490235,5.966797 1.7502356,1.7502356 0 0 1 -2.443359,-2.50586 68.556,68.556 0 0 0 5.224609,-5.675781 1.749,1.749 0 0 1 1.179688,-0.634766 z" />
    </g>
  </g>
  <metadata
     id="metadata317">
    <rdf:RDF>
      <cc:Work
         rdf:about="">
        <dc:title>MEAT</dc:title>
      </cc:Work>
    </rdf:RDF>
  </metadata>
</svg>
