<svg width="82" height="82" viewBox="0 0 82 82" fill="none" xmlns="http://www.w3.org/2000/svg">
<path fill-rule="evenodd" clip-rule="evenodd" d="M71 2H11C6.02944 2 2 6.02944 2 11V71C2 75.9706 6.02944 80 11 80H71C75.9706 80 80 75.9706 80 71V11C80 6.02944 75.9706 2 71 2ZM11 1C5.47715 1 1 5.47715 1 11V71C1 76.5229 5.47715 81 11 81H71C76.5229 81 81 76.5229 81 71V11C81 5.47715 76.5229 1 71 1H11Z" fill="#FF8908" stroke="#77838F" stroke-width="2"/>
<path d="M70.9733 45.5334C71.3812 42.7084 66.9805 42.8716 66.9805 45.5334H70.9733ZM66.9805 45.5334V53.519H15.0744L14.9928 25.9928H66.8989C67.1068 42.8946 66.8989 25.9928 66.9805 37.5479L66.9805 45.5334ZM66.9805 37.5479C67.1437 39.3122 70.9733 40.2097 70.9733 37.5479H66.9805ZM70.9733 37.5479L70.8917 25.9928C70.8761 23.7877 69.1041 22 66.8989 22H14.9928C12.7876 22 10.9949 23.7876 11 25.9928L11.0816 61.5045C11.0841 62.6071 11.9754 63.5009 13.078 63.5009H21.0635C21.7314 63.4975 22.3532 63.1603 22.7206 62.6026L26.1344 57.5118H55.9205L59.3343 62.6026C59.7016 63.1603 60.3235 63.4975 60.9913 63.5009H68.9769C70.0795 63.5009 70.9733 62.6071 70.9733 61.5045V45.5334L70.9733 37.5479ZM66.9805 57.5118V59.5082H62.0694L60.7318 57.5118H66.9805ZM21.3231 57.5118L19.9855 59.5082H15.0744V57.5118H21.3231Z" fill="#77838F"/>
<path d="M19.7463 28.4199C18.6063 28.4199 17.6797 29.4176 17.6797 30.6464V48.4423C17.6797 49.6711 18.6063 50.6687 19.7463 50.6687H56.8978C58.0378 50.6687 58.9644 49.6711 58.9644 48.4423V30.6464C58.9644 29.4176 58.0378 28.4199 56.8978 28.4199H19.7463ZM55.5604 33.0208C56.148 33.0208 56.621 33.4937 56.621 34.0813V47.4595C56.621 48.0471 56.148 48.5201 55.5604 48.5201C54.9728 48.5201 54.4998 48.0471 54.4998 47.4595V34.0813C54.4998 33.4937 54.9728 33.0208 55.5604 33.0208Z" fill="#77838F"/>
<path d="M65.2242 30.5723H60.4102V34.3254H65.2242V30.5723Z" fill="#77838F"/>
<path d="M64.6554 45.5332H60.9839C60.5333 45.5332 60.168 45.8985 60.168 46.3491V47.4913C60.168 47.942 60.5333 48.3072 60.9839 48.3072H64.6554C65.106 48.3072 65.4713 47.942 65.4713 47.4913V46.3491C65.4713 45.8985 65.106 45.5332 64.6554 45.5332Z" fill="#77838F"/>
</svg>
