<?xml version="1.0" encoding="UTF-8" standalone="no"?>
<svg
   viewBox="0 0 32 32"
   version="1.1"
   id="svg482"
   sodipodi:docname="olla de presion.svg"
   inkscape:version="1.1 (c68e22c387, 2021-05-23)"
   xmlns:inkscape="http://www.inkscape.org/namespaces/inkscape"
   xmlns:sodipodi="http://sodipodi.sourceforge.net/DTD/sodipodi-0.dtd"
   xmlns="http://www.w3.org/2000/svg"
   xmlns:svg="http://www.w3.org/2000/svg">
  <defs
     id="defs486" />
  <sodipodi:namedview
     id="namedview484"
     pagecolor="#ffffff"
     bordercolor="#666666"
     borderopacity="1.0"
     inkscape:pageshadow="2"
     inkscape:pageopacity="0.0"
     inkscape:pagecheckerboard="0"
     showgrid="false"
     inkscape:zoom="12.583234"
     inkscape:cx="46.848053"
     inkscape:cy="7.9868182"
     inkscape:window-width="1920"
     inkscape:window-height="1001"
     inkscape:window-x="-9"
     inkscape:window-y="-9"
     inkscape:window-maximized="1"
     inkscape:current-layer="svg482" />
  <g
     id="pot"
     transform="matrix(0.77950718,0,0,0.86995737,0.75821724,1.6038511)">
    <path
       d="M 35.719409,14.197044 26,14 V 12.52 C 25.9945,10.025954 23.974046,8.0054996 21.48,8 l -2.898719,0.039409 v -2 c 0,-0.5522847 -0.447766,-0.992461 -1,-1 L 14.694581,5 c -0.552234,-0.00754 -1,0.4477153 -1,1 V 8 H 10.52 C 8.0259545,8.0054996 6.0054996,10.025954 6,12.52 V 14 H 4.32 C 3.0386994,14 2.0070593,15.038719 2,16.32 l -0.00292,0.52986 c -0.00706,1.281281 1.038712,2.325689 2.32,2.32 L 5.960591,19.162562 6,24 c 0.013497,1.656799 1.3431458,3 3,3 h 14 c 1.656854,0 3,-1.343146 3,-3 v -4 l 9.719409,0.197044 c 1.281037,0.02597 2.32,-1.038699 2.32,-2.32 v -1.36 c 0,-1.2813 -1.038963,-2.294029 -2.32,-2.32 z M 15.694581,7 l 0.8867,0.039409 v 1 L 15.694581,8 Z M 4.3170808,17.16986 c -0.1767294,7.85e-4 -0.3209737,-0.143272 -0.32,-0.32 L 4,16.32 C 4.0009737,16.143271 4.1432689,16 4.32,16 H 6 l -0.039409,1.162562 z m 31.7223282,0.707184 c 0,0.176731 -0.143299,0.323248 -0.32,0.32 L 25,18 c -0.552191,-0.01015 -1,0.447715 -1,1 v 5 c 0,0.552285 -0.447715,1 -1,1 H 9 C 8.4477153,25 8,24.552285 8,24 V 12.52 C 8,11.128242 9.1282424,10 10.52,10 h 11 c 1.19399,9.1e-4 2.22616,0.833304 2.48,2 L 7.9655172,11.960591 c -1.3333287,-0.0033 -1.3333287,1.996723 0,2 L 24,14 v 4.300493 c 0,1.333333 2,1.333333 2,0 V 16 l 9.719409,0.197044 c 0.176695,0.0036 0.32,0.143269 0.32,0.32 z"
       id="path479"
       sodipodi:nodetypes="sccccssssccccsssscsssscsssscccccssssccsssssssssssccsscsscsss" />
  </g>
</svg>
