<svg width="82" height="82" viewBox="0 0 82 82" fill="none" xmlns="http://www.w3.org/2000/svg">
<path fill-rule="evenodd" clip-rule="evenodd" d="M71 2H11C6.02944 2 2 6.02944 2 11V71C2 75.9706 6.02944 80 11 80H71C75.9706 80 80 75.9706 80 71V11C80 6.02944 75.9706 2 71 2ZM11 1C5.47715 1 1 5.47715 1 11V71C1 76.5229 5.47715 81 11 81H71C76.5229 81 81 76.5229 81 71V11C81 5.47715 76.5229 1 71 1H11Z" fill="#FF8908" stroke="#77838F" stroke-width="2"/>
<path d="M49.9579 35.9201V36.8974L50.935 36.9198L67.115 37.2903C68.6218 37.3248 70 38.7002 70 40.6521V43.2089C70 45.2065 68.593 46.6035 67.1608 46.5707L51.0613 46.2021C51.09 46.1758 51.1183 46.1486 51.1461 46.1207C51.5648 45.7004 51.835 45.1433 51.9248 44.4949L67.1171 44.8103C68.1081 44.8308 68.6706 43.9546 68.6706 43.2089V40.6521C68.6706 39.8628 68.0806 39.0719 67.1609 39.0508L67.1608 39.0508L50.9808 38.6803L49.9579 38.6569V39.6801V42.4536L49.3139 42.4403C49.0727 42.4352 48.8436 42.4636 48.6285 42.5202V35.9201V34.9229L47.6313 34.9201L21.9932 34.8489V33.1377C21.9932 33.1214 21.9933 33.1052 21.9934 33.089L47.6257 33.1601L48.8402 33.1635L48.6104 31.9709C48.1134 29.3911 46.0481 27.4023 43.5009 27.4001H43.5H25.1882C22.8809 27.4001 21.0322 29.0107 20.3151 31.154C19.729 31.2881 19.2478 31.6124 18.9021 32.0507C18.8281 32.1445 18.7612 32.2422 18.7011 32.343C19.0578 28.4875 21.9202 25.649 25.1894 25.6401H30.473H31.473V24.6401V20.8802C31.473 20.2608 31.8912 19.9965 32.1223 20.0001L36.9278 20.0741C37.2091 20.0785 37.6079 20.3657 37.6079 20.9543V24.7142V25.7297L38.6233 25.7141L43.4395 25.6402C46.9271 25.6541 49.9496 28.8879 49.9579 33.1396V35.9201ZM49.9579 46.8003V47.2V54.72C49.9579 57.4003 48.0588 59.3599 45.9638 59.3599H22.6579C20.5686 59.3599 18.6832 57.4057 18.6637 54.7128L18.5981 45.6184L18.5909 44.6207L17.5931 44.6257L14.8572 44.6394C13.3915 44.6467 11.9904 43.2534 12 41.2827L12.0049 40.2865C12.0146 38.3037 13.4011 36.9201 14.867 36.9201H17.6638H18.6638V35.9201V35.5167C18.7329 35.6401 18.8117 35.7593 18.9008 35.8727C19.1808 36.2292 19.5502 36.5116 19.9932 36.6784V54.72C19.9932 56.1928 21.0754 57.6 22.6579 57.6H45.9638C47.5463 57.6 48.6285 56.1928 48.6285 54.72V46.8003C48.847 46.8569 49.0707 46.885 49.2932 46.885C49.5156 46.885 49.7394 46.8569 49.9579 46.8003ZM48.8572 44.7092C48.8491 44.7011 48.841 44.6925 48.8328 44.6832C48.9717 44.5131 49.1515 44.4373 49.2724 44.4398L49.8875 44.4526C49.8427 44.5738 49.783 44.6552 49.7292 44.7092C49.6166 44.8222 49.4608 44.885 49.2932 44.885C49.1256 44.885 48.9698 44.8222 48.8572 44.7092ZM33.8525 21.7614L32.8024 21.7087V22.7602V24.6401V25.5912L33.7523 25.6389L35.2284 25.713L36.2785 25.7657V24.7142V22.8342V21.8832L35.3286 21.8355L33.8525 21.7614ZM18.6633 39.7101L18.6942 38.6801H17.6638H14.867C13.9058 38.6801 13.338 39.5186 13.3343 40.2768L13.3295 41.2729C13.3257 42.0432 13.9057 42.8842 14.8672 42.8794L17.6032 42.8657L18.5687 42.8608L18.5977 41.8957L18.6633 39.7101Z" fill="#FF8908" stroke="#77838F" stroke-width="2"/>
</svg>
