<svg width="72" height="72" viewBox="0 0 82 82" fill="none"
  xmlns="http://www.w3.org/2000/svg">
  <path fill-rule="evenodd" clip-rule="evenodd" d="M71 2H11C6.02944 2 2 6.02944 2 11V71C2 75.9706 6.02944 80 11 80H71C75.9706 80 80 75.9706 80 71V11C80 6.02944 75.9706 2 71 2ZM11 1C5.47715 1 1 5.47715 1 11V71C1 76.5229 5.47715 81 11 81H71C76.5229 81 81 76.5229 81 71V11C81 5.47715 76.5229 1 71 1H11Z" fill="#FF8908" stroke="#77838F" stroke-width="2"/>
  <path d="M66.3333 51C66.3333 48.037 61.8889 48.037 61.8889 51H66.3333ZM61.8889 51V59.8889H17.4444V15.4444H61.8889V24.3333H24.1111C21.1481 24.3333 21.1481 28.7778 24.1111 28.7778H61.8889V42.1111V51ZM61.8889 42.1111C62.0705 44.0751 66.3333 45.0741 66.3333 42.1111H61.8889ZM66.3333 42.1111V15.4444C66.3333 12.9898 64.3435 11 61.8889 11H17.4444C14.9898 11 13 12.9898 13 15.4444V68.7778C13 70.0051 13.9949 71 15.2222 71H24.1111C24.8545 70.9962 25.5467 70.6209 25.9556 70L29.7556 64.3333H49.5778L53.3778 70C53.7866 70.6209 54.4788 70.9962 55.2222 71H64.1111C65.3384 71 66.3333 70.0051 66.3333 68.7778V51V42.1111ZM61.8889 64.3333V66.5556H56.4222L54.9333 64.3333H61.8889ZM24.4 64.3333L22.9111 66.5556H17.4444V64.3333H24.4Z" fill="#77838F"/>
  <path d="M24.1109 33.2222C23.5215 33.2222 22.9563 33.4563 22.5395 33.873C22.1228 34.2898 21.8887 34.855 21.8887 35.4444V53.2222C21.8887 53.8115 22.1228 54.3768 22.5395 54.7935C22.9563 55.2103 23.5215 55.4444 24.1109 55.4444H55.222C55.8114 55.4444 56.3766 55.2103 56.7934 54.7935C57.2101 54.3768 57.4442 53.8115 57.4442 53.2222V35.4444C57.4442 34.855 57.2101 34.2898 56.7934 33.873C56.3766 33.4563 55.8114 33.2222 55.222 33.2222H24.1109ZM52.9998 50.9999H26.3331V37.6666H52.9998V50.9999Z" fill="#77838F"/>
  <path d="M24.1109 22.1112H32.9998C33.5892 22.1112 34.1544 21.8771 34.5711 21.4603C34.9879 21.0436 35.222 20.4783 35.222 19.889C35.222 19.2996 34.9879 18.7344 34.5711 18.3176C34.1544 17.9009 33.5892 17.6667 32.9998 17.6667H24.1109C23.5215 17.6667 22.9563 17.9009 22.5395 18.3176C22.1228 18.7344 21.8887 19.2996 21.8887 19.889C21.8887 20.4783 22.1228 21.0436 22.5395 21.4603C22.9563 21.8771 23.5215 22.1112 24.1109 22.1112Z" fill="#77838F"/>
  <path d="M57.4444 19.889C57.4444 19.2996 57.2103 18.7344 56.7936 18.3176C56.3768 17.9009 55.8116 17.6667 55.2222 17.6667C54.7827 17.6667 54.3531 17.7971 53.9876 18.0413C53.6222 18.2854 53.3374 18.6325 53.1692 19.0386C53.001 19.4446 52.957 19.8914 53.0427 20.3225C53.1284 20.7536 53.3401 21.1495 53.6509 21.4603C53.9617 21.7711 54.3576 21.9827 54.7887 22.0685C55.2198 22.1542 55.6666 22.1102 56.0726 21.942C56.4787 21.7738 56.8258 21.489 57.0699 21.1236C57.3141 20.7581 57.4444 20.3285 57.4444 19.889Z" fill="#77838F"/>
  <path d="M50.7784 19.889C50.7784 19.2996 50.5443 18.7344 50.1276 18.3176C49.7108 17.9009 49.1456 17.6667 48.5562 17.6667C48.1167 17.6667 47.687 17.7971 47.3216 18.0413C46.9562 18.2854 46.6713 18.6325 46.5031 19.0386C46.3349 19.4446 46.2909 19.8914 46.3767 20.3225C46.4624 20.7536 46.6741 21.1495 46.9849 21.4603C47.2956 21.7711 47.6916 21.9827 48.1227 22.0685C48.5537 22.1542 49.0006 22.1102 49.4066 21.942C49.8127 21.7738 50.1597 21.489 50.4039 21.1236C50.6481 20.7581 50.7784 20.3285 50.7784 19.889Z" fill="#77838F"/>
</svg>
