<?xml version="1.0" encoding="utf-8"?>
<!-- Generator: Adobe Illustrator 24.3.0, SVG Export Plug-In . SVG Version: 6.00 Build 0)  -->
<svg version="1.1" id="Capa_1" xmlns="http://www.w3.org/2000/svg" xmlns:xlink="http://www.w3.org/1999/xlink" x="0px" y="0px"
	 viewBox="0 0 82 82" style="enable-background:new 0 0 82 82;" xml:space="preserve">
<style type="text/css">
	.st0{fill-rule:evenodd;clip-rule:evenodd;fill:#FF8908;stroke:#77838F;stroke-width:2;}
	.st1{fill:#77838F;}
</style>
<path class="st0" d="M71,2H11c-5,0-9,4-9,9v60c0,5,4,9,9,9h60c5,0,9-4,9-9V11C80,6,76,2,71,2z M11,1C5.5,1,1,5.5,1,11v60
	c0,5.5,4.5,10,10,10h60c5.5,0,10-4.5,10-10V11c0-5.5-4.5-10-10-10H11z"/>
<path class="st1" d="M58.7,45.7V27.1c0-1.9-1.2-3.7-2.9-4.4c-2.5-1.1-5.1-1.7-7.7-1.9v-7.8H50V11h-1.9h-1H33.5h-1h-1.9v1.9h1.9v7.8
	c-2.7,0.2-5.2,0.8-7.7,1.9c-1.8,0.8-2.9,2.5-2.9,4.4v18.6c-1.3,3.3-1.9,6.7-1.9,10.2v12.2h1.9V71h5.8v-2.9h25.2V71h5.8v-2.9h1.9
	V55.9C60.6,52.4,60,48.9,58.7,45.7z M55,24.4c0.5,0.2,1,0.6,1.3,1.1H45.2v-2.9h1C49.2,22.6,52.2,23.2,55,24.4z M34.5,12.9h11.6v7.7
	h-1h-9.7h-1V12.9z M37.4,25.5v-2.9h5.8v2.9H37.4z M43.2,27.5v4.8h-5.8v-4.8H43.2z M25.6,24.4c2.8-1.2,5.8-1.8,8.9-1.8h1v2.9H24.3
	C24.6,25,25.1,24.7,25.6,24.4z M23.9,27.5h11.6v6.8h9.7v-6.8h11.6v17.4H23.9V27.5z M25.8,69.1h-1.9v-1h1.9V69.1z M56.8,69.1h-1.9v-1
	h1.9V69.1z M58.7,62.3H48.1v1.9h10.6v1.9h-5.8H27.7h-5.8v-1.9h10.6v-1.9H21.9v-6.4c0-3.1,0.5-6.2,1.6-9.1h33.5
	c1.1,2.9,1.6,6,1.6,9.1V62.3z"/>
<path class="st1" d="M40.3,48.7c-4.3,0-7.7,3.5-7.7,7.7c0,4.3,3.5,7.7,7.7,7.7c4.3,0,7.7-3.5,7.7-7.7C48.1,52.2,44.6,48.7,40.3,48.7
	z M39.4,62.2c-2.7-0.5-4.8-2.8-4.8-5.7c0-2.9,2.1-5.3,4.8-5.7V62.2z M41.3,62.2V50.8c2.7,0.5,4.8,2.8,4.8,5.7S44,61.7,41.3,62.2z"/>
<path class="st1" d="M34.5,41h-7.7v1.9h7.7V41z"/>
<path class="st1" d="M44.2,41h-7.7v1.9h7.7V41z"/>
<path class="st1" d="M53.9,41h-7.7v1.9h7.7V41z"/>
<path class="st1" d="M39.4,38.1h-7.7V40h7.7V38.1z"/>
<path class="st1" d="M49,38.1h-7.7V40H49V38.1z"/>
</svg>
