<svg width="41" height="60" viewBox="0 0 41 60" fill="none" xmlns="http://www.w3.org/2000/svg">
<path d="M38.7095 34.6643V16.1013C38.7095 14.163 37.5589 12.4171 35.7764 11.6535C33.3076 10.5947 30.7199 9.96576 28.0644 9.75969V1.93552H29.9999V0H28.0644H27.0966H13.5482H12.5805H10.6451V1.93552H12.5807V9.75867C9.9243 9.96474 7.33745 10.5947 4.86785 11.6535C3.08597 12.4171 1.93552 14.1628 1.93552 16.1013V34.6645C0.654182 37.9344 0 41.373 0 44.8888V57.0967H1.93552V60H7.74186V57.0967H32.9032V60H38.7095V57.0967H40.645V44.8886C40.645 41.3728 39.9909 37.9344 38.7095 34.6643ZM35.0137 13.4322C35.5538 13.6634 35.9961 14.0457 36.3027 14.5162H25.1611V11.6129H26.1492C29.2138 11.6129 32.1966 12.2246 35.0137 13.4322ZM14.516 1.93552H26.1289V9.67738H25.1611H15.4837H14.516V1.93552ZM17.4192 14.5162V11.6129H23.2256V14.5162H17.4192ZM23.2258 16.4515V21.2903H17.4195V16.4515H23.2258ZM5.62934 13.4322C8.44645 12.2244 11.429 11.6129 14.4938 11.6129H15.4837V14.5162H4.34231C4.64878 14.0457 5.09018 13.6634 5.62934 13.4322ZM3.87083 16.4515H15.4837V23.2256H25.1611V16.4515H36.774V33.8707H3.87083V16.4515ZM5.80635 58.0643H3.87083V57.0965H5.80635V58.0643ZM36.7738 58.0643H34.8383V57.0965H36.7738V58.0643ZM38.7097 51.2902H28.0646V53.2257H38.7097V55.1612H32.9032H7.74166H1.93552V53.2257H12.5807V51.2902H1.93552V44.8886C1.93552 41.7715 2.48422 38.7193 3.56721 35.8064H37.079C38.161 38.7193 38.7097 41.7715 38.7097 44.8886V51.2902Z" fill="#77838F"/>
<path d="M20.3219 37.7419C16.0532 37.7419 12.5801 41.2151 12.5801 45.4838C12.5801 49.7526 16.0532 53.2257 20.3219 53.2257C24.5907 53.2257 28.0638 49.7526 28.0638 45.4838C28.0638 41.2151 24.5907 37.7419 20.3219 37.7419ZM19.3544 51.2034C16.6127 50.7396 14.5156 48.3552 14.5156 45.484C14.5156 42.6126 16.6127 40.2282 19.3544 39.7646V51.2034ZM21.2895 51.2032V39.7644C24.031 40.227 26.1283 42.6116 26.1283 45.4838C26.1283 48.356 24.0312 50.7396 21.2895 51.2032Z" fill="#77838F"/>
<path d="M14.5173 30H6.77539V31.9355H14.5173V30Z" fill="#77838F"/>
<path d="M24.193 30H16.4512V31.9355H24.193V30Z" fill="#77838F"/>
<path d="M33.8708 30H26.1289V31.9355H33.8708V30Z" fill="#77838F"/>
<path d="M19.3551 27.0967H11.6133V29.0322H19.3551V27.0967Z" fill="#77838F"/>
<path d="M29.0329 27.0967H21.291V29.0322H29.0329V27.0967Z" fill="#77838F"/>
</svg>
