<svg xmlns="http://www.w3.org/2000/svg" viewBox="0 0 32 32"><g id="stove"><path d="M29,19a1,1,0,0,0,1-1V10.37A2.37,2.37,0,0,0,27.63,8H4.37A2.37,2.37,0,0,0,2,10.37V26.63A2.37,2.37,0,0,0,4.37,29H27.63A2.37,2.37,0,0,0,30,26.63V22a1,1,0,0,0-1-1H4V10.37A.36.36,0,0,1,4.37,10H27.63a.36.36,0,0,1,.37.37V18A1,1,0,0,0,29,19Zm-1,4v3.63a.36.36,0,0,1-.37.37H4.37A.36.36,0,0,1,4,26.63V23Z"/><path d="M9.5,18A2.5,2.5,0,0,1,7,15.5a1,1,0,0,0-2,0A4.5,4.5,0,1,0,9.5,11a4.61,4.61,0,0,0-1.93.43,1,1,0,0,0,.86,1.81A2.46,2.46,0,0,1,9.5,13a2.5,2.5,0,0,1,0,5Z"/><path d="M18,15.5A4.5,4.5,0,1,0,22.5,11,4.51,4.51,0,0,0,18,15.5Zm7,0A2.5,2.5,0,1,1,22.5,13,2.5,2.5,0,0,1,25,15.5Z"/><path d="M13,26h6a1,1,0,0,0,0-2H13a1,1,0,0,0,0,2Z"/><path d="M9,26a1,1,0,0,0,0-2H9a1,1,0,1,0,0,2Z"/><path d="M23,26a1,1,0,0,0,0-2h0a1,1,0,1,0,0,2Z"/></g></svg>