<svg width="82" height="82" viewBox="0 0 82 82" fill="none" xmlns="http://www.w3.org/2000/svg">
<path fill-rule="evenodd" clip-rule="evenodd" d="M71 2H11C6.02944 2 2 6.02944 2 11V71C2 75.9706 6.02944 80 11 80H71C75.9706 80 80 75.9706 80 71V11C80 6.02944 75.9706 2 71 2ZM11 1C5.47715 1 1 5.47715 1 11V71C1 76.5229 5.47715 81 11 81H71C76.5229 81 81 76.5229 81 71V11C81 5.47715 76.5229 1 71 1H11Z" fill="#FF8908" stroke="#77838F" stroke-width="2"/>
<path d="M68.8571 41.5714C69.4255 41.5714 69.9705 41.3457 70.3724 40.9438C70.7742 40.5419 71 39.9969 71 39.4286V23.0786C71 21.7317 70.4649 20.4399 69.5125 19.4875C68.5601 18.5351 67.2683 18 65.9214 18H16.0786C14.7317 18 13.4399 18.5351 12.4875 19.4875C11.5351 20.4399 11 21.7317 11 23.0786V57.9214C11 59.2683 11.5351 60.5601 12.4875 61.5125C13.4399 62.4649 14.7317 63 16.0786 63H65.9214C67.2683 63 68.5601 62.4649 69.5125 61.5125C70.4649 60.5601 71 59.2683 71 57.9214V48C71 47.4317 70.7742 46.8866 70.3724 46.4848C69.9705 46.0829 69.4255 45.8571 68.8571 45.8571H15.2857V23.0786C15.2828 22.9736 15.3012 22.8692 15.34 22.7717C15.3788 22.6742 15.4371 22.5856 15.5114 22.5114C15.5856 22.4371 15.6742 22.3788 15.7717 22.34C15.8692 22.3012 15.9736 22.2828 16.0786 22.2857H65.9214C66.0263 22.2828 66.1308 22.3012 66.2283 22.34C66.3258 22.3788 66.4144 22.4371 66.4886 22.5114C66.5629 22.5856 66.6212 22.6742 66.66 22.7717C66.6988 22.8692 66.7172 22.9736 66.7143 23.0786V39.4286C66.7143 39.9969 66.94 40.5419 67.3419 40.9438C67.7438 41.3457 68.2888 41.5714 68.8571 41.5714ZM66.7143 50.1429V57.9214C66.7172 58.0263 66.6988 58.1308 66.66 58.2283C66.6212 58.3258 66.5629 58.4144 66.4886 58.4886C66.4144 58.5629 66.3258 58.6212 66.2283 58.66C66.1308 58.6988 66.0263 58.7172 65.9214 58.7143H16.0786C15.9736 58.7172 15.8692 58.6988 15.7717 58.66C15.6742 58.6212 15.5856 58.5629 15.5114 58.4886C15.4371 58.4144 15.3788 58.3258 15.34 58.2283C15.3012 58.1308 15.2828 58.0263 15.2857 57.9214V50.1429H66.7143Z" fill="#77838F"/>
<path d="M27.0706 39.429C25.6498 39.429 24.2872 38.8645 23.2825 37.8599C22.2779 36.8552 21.7134 35.4926 21.7134 34.0718C21.7134 33.5035 21.4877 32.9584 21.0858 32.5566C20.684 32.1547 20.1389 31.929 19.5706 31.929C19.0023 31.929 18.4572 32.1547 18.0554 32.5566C17.6535 32.9584 17.4277 33.5035 17.4277 34.0718C17.4277 35.979 17.9933 37.8433 19.0528 39.4291C20.1124 41.0149 21.6184 42.2508 23.3804 42.9806C25.1424 43.7105 27.0813 43.9015 28.9518 43.5294C30.8224 43.1573 32.5405 42.2389 33.8891 40.8903C35.2377 39.5418 36.1561 37.8236 36.5282 35.953C36.9002 34.0825 36.7093 32.1437 35.9794 30.3817C35.2496 28.6196 34.0136 27.1136 32.4279 26.0541C30.8421 24.9945 28.9778 24.429 27.0706 24.429C25.6416 24.4334 24.2306 24.7477 22.9349 25.3504C22.4205 25.5948 22.0244 26.0334 21.8335 26.5699C21.739 26.8356 21.6977 27.1172 21.712 27.3988C21.7264 27.6804 21.796 27.9564 21.917 28.2111C22.038 28.4658 22.208 28.6941 22.4173 28.8831C22.6265 29.0721 22.8709 29.218 23.1366 29.3125C23.6731 29.5034 24.2634 29.4733 24.7777 29.229C25.4936 28.8872 26.2773 28.7114 27.0706 28.7147C28.4914 28.7147 29.854 29.2791 30.8587 30.2837C31.8633 31.2884 32.4277 32.651 32.4277 34.0718C32.4277 35.4926 31.8633 36.8552 30.8587 37.8599C29.854 38.8645 28.4914 39.429 27.0706 39.429Z" fill="#77838F"/>
<path d="M45.2852 34.0718C45.2852 35.979 45.8507 37.8433 46.9103 39.4291C47.9698 41.0149 49.4759 42.2508 51.2379 42.9806C52.9999 43.7105 54.9387 43.9015 56.8092 43.5294C58.6798 43.1573 60.398 42.2389 61.7465 40.8903C63.0951 39.5418 64.0135 37.8236 64.3856 35.953C64.7577 34.0825 64.5667 32.1437 63.8369 30.3817C63.107 28.6196 61.8711 27.1136 60.2853 26.0541C58.6995 24.9945 56.8352 24.429 54.928 24.429C52.3723 24.4346 49.9229 25.4524 48.1157 27.2595C46.3086 29.0667 45.2908 31.5161 45.2852 34.0718ZM60.2852 34.0718C60.2852 35.1314 59.971 36.1671 59.3823 37.0481C58.7937 37.9291 57.957 38.6157 56.9781 39.0212C55.9992 39.4266 54.9221 39.5327 53.8829 39.326C52.8437 39.1193 51.8892 38.6091 51.1399 37.8599C50.3907 37.1107 49.8805 36.1561 49.6738 35.1169C49.4671 34.0778 49.5732 33.0006 49.9787 32.0217C50.3841 31.0428 51.0708 30.2062 51.9517 29.6175C52.8327 29.0289 53.8685 28.7147 54.928 28.7147C56.3488 28.7147 57.7114 29.2791 58.7161 30.2837C59.7207 31.2884 60.2852 32.651 60.2852 34.0718Z" fill="#77838F"/>
<path d="M34.5706 56.5716H47.4277C47.9961 56.5716 48.5411 56.3458 48.943 55.944C49.3448 55.5421 49.5706 54.9971 49.5706 54.4287C49.5706 53.8604 49.3448 53.3154 48.943 52.9135C48.5411 52.5117 47.9961 52.2859 47.4277 52.2859H34.5706C34.0023 52.2859 33.4572 52.5117 33.0554 52.9135C32.6535 53.3154 32.4277 53.8604 32.4277 54.4287C32.4277 54.9971 32.6535 55.5421 33.0554 55.944C33.4572 56.3458 34.0023 56.5716 34.5706 56.5716Z" fill="#77838F"/>
<path d="M26.0003 56.5716C26.5686 56.5716 27.1136 56.3458 27.5155 55.944C27.9174 55.5421 28.1431 54.9971 28.1431 54.4287C28.1431 53.8604 27.9174 53.3154 27.5155 52.9135C27.1136 52.5117 26.5686 52.2859 26.0003 52.2859C25.432 52.2859 24.8869 52.5117 24.4851 52.9135C24.0832 53.3154 23.8574 53.8604 23.8574 54.4287C23.8574 54.9971 24.0832 55.5421 24.4851 55.944C24.8869 56.3458 25.432 56.5716 26.0003 56.5716Z" fill="#77838F"/>
<path d="M56.0003 56.5716C56.5686 56.5716 57.1136 56.3458 57.5155 55.944C57.9174 55.5421 58.1431 54.9971 58.1431 54.4287C58.1431 53.8604 57.9174 53.3154 57.5155 52.9135C57.1136 52.5117 56.5686 52.2859 56.0003 52.2859C55.432 52.2859 54.8869 52.5117 54.485 52.9135C54.0832 53.3154 53.8574 53.8604 53.8574 54.4287C53.8574 54.9971 54.0832 55.5421 54.485 55.944C54.8869 56.3458 55.432 56.5716 56.0003 56.5716Z" fill="#77838F"/>
</svg>
