<svg width="17" height="18" viewBox="0 0 17 18" fill="none" xmlns="http://www.w3.org/2000/svg">
<path fill-rule="evenodd" clip-rule="evenodd" d="M4.89081 5.60901C4.01076 5.37265 3.08546 5.90068 2.84911 6.78575C2.65299 7.51493 2.91951 7.99267 3.32685 8.49555H6.44974C6.43968 8.22399 6.39442 7.93735 6.3391 7.66579C6.24356 7.15285 6.08263 6.68517 5.91165 6.38345C5.68033 5.98617 5.3082 5.72467 4.89081 5.60901ZM15.3306 9.8835H1.53659C1.70757 12.0811 2.70327 13.1975 3.55314 14.153C4.24712 14.9324 4.85058 15.6163 5.05173 16.612H11.8205C12.0166 15.6163 12.6251 14.9324 13.3141 14.153C14.1639 13.1975 15.1596 12.0811 15.3306 9.8835ZM7.31469 4.47753C7.11354 4.59319 6.86713 4.5077 6.75649 4.31158C6.65089 4.11042 6.72632 3.85898 6.92747 3.75338C8.18971 3.06443 9.77881 3.17004 10.9354 4.04002C11.4836 4.44232 11.911 4.99046 12.1776 5.62409C12.263 5.61907 12.3485 5.60901 12.434 5.60901C14.0181 5.60901 15.3256 6.9165 15.3306 8.49555H16.0497C16.4319 8.49555 16.7387 8.80733 16.7387 9.18952V9.20964C16.7387 12.3929 15.4463 13.8512 14.355 15.0732C13.6963 15.7974 13.1431 16.431 13.1431 17.306C13.1431 17.6882 12.8313 18 12.4491 18H12.424H4.4181C4.03591 18 3.72915 17.6882 3.72915 17.306C3.72915 16.431 3.16592 15.7974 2.51721 15.0732C1.42596 13.8512 0.123493 12.3828 0.123493 9.18952C0.123493 8.80733 0.435279 8.49555 0.817469 8.49555H0.832555H1.68242C1.3807 7.82671 1.33041 7.10257 1.51647 6.43373C1.65225 5.89062 1.94895 5.38774 2.3764 4.99046L0.09332 1.03782C-0.0977748 0.705917 0.012859 0.283497 0.349789 0.0924024C0.671633 -0.0986924 1.09908 0.0169702 1.29018 0.343843L3.56823 4.30152C4.13146 4.13054 4.70977 4.12551 5.24785 4.27134C6.0072 4.4725 6.68106 4.96532 7.10348 5.69953C7.35492 6.12698 7.57116 6.74049 7.70191 7.39927C7.77232 7.75631 7.81757 8.12844 7.83266 8.49555H14.5059C14.5009 7.35903 13.5756 6.44379 12.434 6.44379C12.3586 6.44379 12.2781 6.44379 12.2128 6.44882C12.1424 6.45888 12.0719 6.46894 12.0166 6.48402C11.7954 6.5494 11.564 6.42368 11.5037 6.20744C11.3176 5.59895 10.9455 5.07093 10.4426 4.69879C9.54246 4.02996 8.30537 3.9495 7.31469 4.47753Z" fill="#FF8908"/>
</svg>
