<svg xmlns="http://www.w3.org/2000/svg" width="128" height="128" viewBox="0 0 128 128">
  <title>WHEAT</title>
  <path d="M123.245,40.093a1.751,1.751,0,0,0-1.679-1.679,20.8,20.8,0,0,0-4.168.364,12.109,12.109,0,0,0,1.475-1.246c4.629-4.63,4.385-12.127,4.372-12.443a1.751,1.751,0,0,0-1.679-1.679,21.23,21.23,0,0,0-7.15,1.158,16.126,16.126,0,0,0,.574-4.178c0-8.34-7-14.9-7.3-15.176a1.752,1.752,0,0,0-2.374,0c-.3.275-7.3,6.836-7.3,15.176a16.126,16.126,0,0,0,.574,4.178,21.262,21.262,0,0,0-7.15-1.158,1.751,1.751,0,0,0-1.679,1.679c-.013.316-.257,7.813,4.372,12.443A12.217,12.217,0,0,0,95.6,38.779a20.852,20.852,0,0,0-4.169-.365,1.751,1.751,0,0,0-1.679,1.679c-.013.316-.257,7.813,4.372,12.443A12.327,12.327,0,0,0,95.6,53.784a20.818,20.818,0,0,0-4.17-.366A1.752,1.752,0,0,0,89.755,55.1c-.013.317-.257,7.813,4.372,12.443A12.327,12.327,0,0,0,95.6,68.788a20.818,20.818,0,0,0-4.17-.366A1.751,1.751,0,0,0,89.755,70.1c-.013.316-.257,7.814,4.372,12.442A12.277,12.277,0,0,0,95.6,83.79a20.7,20.7,0,0,0-4.167-.364,1.751,1.751,0,0,0-1.679,1.679c-.013.316-.257,7.813,4.372,12.443h0a15.312,15.312,0,0,0,7.623,3.877V119.75h-33V101.425a15.3,15.3,0,0,0,7.623-3.877h0c4.629-4.63,4.385-12.127,4.372-12.443a1.751,1.751,0,0,0-1.679-1.679,20.539,20.539,0,0,0-4.167.364,12.2,12.2,0,0,0,1.474-1.247C81,77.915,80.754,70.417,80.741,70.1a1.751,1.751,0,0,0-1.679-1.679,20.819,20.819,0,0,0-4.169.366,12.226,12.226,0,0,0,1.476-1.248C81,62.91,80.754,55.414,80.741,55.1a1.752,1.752,0,0,0-1.679-1.679,20.86,20.86,0,0,0-4.169.365,12.217,12.217,0,0,0,1.476-1.247c4.629-4.63,4.385-12.127,4.372-12.443a1.751,1.751,0,0,0-1.679-1.679,20.844,20.844,0,0,0-4.168.365,12.209,12.209,0,0,0,1.475-1.247C81,32.9,80.754,25.405,80.741,25.089a1.751,1.751,0,0,0-1.679-1.679,21.244,21.244,0,0,0-7.15,1.158,16.126,16.126,0,0,0,.574-4.178c0-8.34-7.005-14.9-7.3-15.176a1.75,1.75,0,0,0-2.373,0c-.3.275-7.3,6.836-7.3,15.176a16.126,16.126,0,0,0,.574,4.178,21.212,21.212,0,0,0-7.15-1.158,1.752,1.752,0,0,0-1.679,1.679c-.013.316-.257,7.813,4.372,12.443A12.209,12.209,0,0,0,53.1,38.779a20.827,20.827,0,0,0-4.168-.365,1.752,1.752,0,0,0-1.679,1.679c-.013.316-.257,7.813,4.372,12.443A12.4,12.4,0,0,0,53.1,53.784a20.819,20.819,0,0,0-4.169-.366A1.752,1.752,0,0,0,47.251,55.1c-.013.317-.257,7.813,4.372,12.443A12.282,12.282,0,0,0,53.1,68.786a20.539,20.539,0,0,0-4.167-.364A1.752,1.752,0,0,0,47.251,70.1c-.013.316-.257,7.814,4.372,12.442A12.118,12.118,0,0,0,53.1,83.79a20.721,20.721,0,0,0-4.168-.364,1.752,1.752,0,0,0-1.679,1.679c-.013.316-.257,7.813,4.372,12.443a15.3,15.3,0,0,0,7.623,3.877V119.75h-33V101.425a15.3,15.3,0,0,0,7.623-3.877h0c4.629-4.63,4.385-12.127,4.372-12.443a1.751,1.751,0,0,0-1.678-1.679,20.571,20.571,0,0,0-4.167.363,12.168,12.168,0,0,0,1.473-1.246c4.629-4.628,4.385-12.126,4.372-12.442a1.751,1.751,0,0,0-1.678-1.679,20.864,20.864,0,0,0-4.17.365,12.217,12.217,0,0,0,1.476-1.247c4.629-4.63,4.385-12.126,4.372-12.443a1.751,1.751,0,0,0-1.678-1.679,20.864,20.864,0,0,0-4.17.365,12.141,12.141,0,0,0,1.476-1.247c4.629-4.63,4.385-12.127,4.372-12.443a1.751,1.751,0,0,0-1.678-1.679,20.844,20.844,0,0,0-4.168.365,12.277,12.277,0,0,0,1.474-1.247c4.629-4.63,4.385-12.127,4.372-12.443a1.751,1.751,0,0,0-1.678-1.679,21.24,21.24,0,0,0-7.151,1.158,16.126,16.126,0,0,0,.574-4.178c0-8.34-7-14.9-7.3-15.176a1.75,1.75,0,0,0-2.373,0c-.3.275-7.3,6.836-7.3,15.176a16.12,16.12,0,0,0,.574,4.178,21.212,21.212,0,0,0-7.15-1.158,1.752,1.752,0,0,0-1.679,1.679c-.013.316-.257,7.813,4.372,12.443a12.209,12.209,0,0,0,1.475,1.247,20.827,20.827,0,0,0-4.168-.365,1.752,1.752,0,0,0-1.679,1.679c-.013.316-.257,7.813,4.372,12.443A12.4,12.4,0,0,0,10.6,53.784a20.815,20.815,0,0,0-4.169-.366A1.752,1.752,0,0,0,4.747,55.1c-.013.317-.257,7.813,4.372,12.443a12.361,12.361,0,0,0,1.474,1.246,20.539,20.539,0,0,0-4.167-.364A1.752,1.752,0,0,0,4.747,70.1c-.013.316-.257,7.814,4.372,12.442a12.118,12.118,0,0,0,1.475,1.247,20.717,20.717,0,0,0-4.168-.364,1.752,1.752,0,0,0-1.679,1.679c-.013.316-.257,7.813,4.372,12.443a15.308,15.308,0,0,0,7.623,3.877V119.75H6.5a1.75,1.75,0,0,0,0,3.5h115a1.75,1.75,0,0,0,0-3.5H111.25V101.425a15.3,15.3,0,0,0,7.623-3.877h0c4.629-4.63,4.385-12.127,4.372-12.443a1.751,1.751,0,0,0-1.679-1.679,20.571,20.571,0,0,0-4.167.363,12.1,12.1,0,0,0,1.474-1.246c4.629-4.628,4.385-12.126,4.372-12.442a1.751,1.751,0,0,0-1.679-1.679,20.848,20.848,0,0,0-4.169.365,12.217,12.217,0,0,0,1.476-1.247c4.629-4.63,4.385-12.126,4.372-12.443a1.752,1.752,0,0,0-1.679-1.679,20.836,20.836,0,0,0-4.168.365,12.209,12.209,0,0,0,1.475-1.247C123.5,47.906,123.258,40.409,123.245,40.093ZM116.4,50.061c-2.37,2.369-5.954,3.068-8.076,3.271.2-2.119.894-5.689,3.276-8.072s5.953-3.068,8.076-3.27C119.476,44.108,118.78,47.678,116.4,50.061Zm-10.2-8.152c.146,0,.236,0,.3,0s.153,0,.3,0c.226,0,.555-.007.951-.028v2.561a14.243,14.243,0,0,0-1.25,2.168,14.226,14.226,0,0,0-1.267-2.191c0-.057.017-.112.017-.169V41.881C105.646,41.9,105.975,41.909,106.2,41.909Zm1.55,17.536a14.3,14.3,0,0,0-1.251,2.169,14.307,14.307,0,0,0-1.278-2.206,1.762,1.762,0,0,0,.028-.283v-2.24c.4.021.725.028.951.028.146,0,.236,0,.3,0s.153,0,.3,0c.226,0,.555-.007.951-.028v2.56Zm0,15a14.3,14.3,0,0,0-1.251,2.169,14.289,14.289,0,0,0-1.279-2.207,1.68,1.68,0,0,0,.029-.286V71.889c.4.021.725.028.951.028.146,0,.236,0,.3,0s.153,0,.3,0c.226,0,.555-.007.951-.028v2.56Zm-2.5,15V86.893c.4.021.726.028.952.028.146,0,.236,0,.3,0s.152,0,.3,0c.226,0,.556-.007.952-.028v2.19a1.769,1.769,0,0,0,.033.327,14.234,14.234,0,0,0-1.283,2.212A14.243,14.243,0,0,0,105.25,89.454Zm11.148-54.4a12.771,12.771,0,0,1-7.157,3.159c-.039.006-.079.008-.118.017-.282.039-.553.071-.8.1.2-2.119.894-5.689,3.276-8.072s5.953-3.068,8.076-3.27C119.476,29.1,118.78,32.674,116.4,35.057ZM101.51,20.39c0-4.91,3.2-9.281,4.993-11.346,1.8,2.06,4.987,6.415,4.987,11.346a14.8,14.8,0,0,1-2.006,7.066c-.12.11-.245.21-.361.326a13.282,13.282,0,0,0-2.623,3.824,13.282,13.282,0,0,0-2.623-3.824c-.117-.117-.243-.218-.364-.329A14.793,14.793,0,0,1,101.51,20.39Zm-8.178,6.6c2.124.2,5.7.9,8.07,3.27s3.068,5.954,3.271,8.077c-.235-.023-.494-.053-.761-.089a1.729,1.729,0,0,0-.261-.039A12.629,12.629,0,0,1,96.6,35.057C94.234,32.69,93.535,29.109,93.332,26.986Zm0,15.005c2.124.2,5.7.9,8.07,3.269s3.068,5.954,3.271,8.076c-2.118-.2-5.689-.893-8.071-3.275C94.234,47.694,93.535,44.114,93.332,41.991Zm0,15c2.124.2,5.7.9,8.07,3.27s3.068,5.953,3.271,8.075c-2.118-.2-5.689-.893-8.071-3.275C94.234,62.7,93.535,59.118,93.332,57Zm0,15c2.124.2,5.7.9,8.07,3.27s3.067,5.947,3.27,8.07c-2.124-.2-5.7-.9-8.07-3.27S93.535,74.122,93.332,72ZM96.6,95.073c-2.368-2.367-3.067-5.948-3.27-8.071,2.124.2,5.7.9,8.07,3.27s3.067,5.948,3.27,8.071c-2.124-.2-5.7-.9-8.07-3.27ZM63.7,41.909c.146,0,.237,0,.3,0s.153,0,.3,0c.226,0,.556-.007.951-.028v2.561A14.318,14.318,0,0,0,64,46.609a14.264,14.264,0,0,0-1.267-2.19,1.612,1.612,0,0,0,.017-.169V41.881C63.142,41.9,63.471,41.909,63.7,41.909Zm-.951,17.216v-2.24c.4.021.725.028.951.028.146,0,.237,0,.3,0s.153,0,.3,0c.226,0,.556-.007.951-.028v2.56A14.3,14.3,0,0,0,64,61.614a14.307,14.307,0,0,0-1.278-2.206A1.762,1.762,0,0,0,62.746,59.125Zm0,15V71.889c.4.021.725.028.951.028.146,0,.237,0,.3,0s.153,0,.3,0c.226,0,.556-.007.951-.028v2.56A14.3,14.3,0,0,0,64,76.618a14.289,14.289,0,0,0-1.279-2.207A1.68,1.68,0,0,0,62.746,74.125Zm0,15.329V86.893c.4.021.726.028.952.028.145,0,.235,0,.3,0s.152,0,.3,0c.227,0,.556-.007.952-.028v2.19a1.769,1.769,0,0,0,.033.327A14.234,14.234,0,0,0,64,91.622,14.243,14.243,0,0,0,62.746,89.454ZM73.9,95.073c-2.371,2.369-5.954,3.068-8.077,3.271.2-2.118.894-5.689,3.276-8.072S75.047,87.205,77.17,87C76.972,89.12,76.276,92.69,73.9,95.073Zm0-15c-2.371,2.369-5.954,3.068-8.077,3.271.2-2.118.894-5.689,3.276-8.071S75.047,72.2,77.17,72C76.972,74.116,76.276,77.687,73.9,80.069Zm0-15c-2.371,2.369-5.955,3.068-8.077,3.27.2-2.118.894-5.688,3.276-8.07s5.953-3.068,8.076-3.271C76.972,59.112,76.276,62.682,73.9,65.065Zm0-15c-2.371,2.369-5.955,3.068-8.077,3.271.2-2.119.894-5.689,3.276-8.072s5.953-3.068,8.076-3.27C76.972,44.108,76.276,47.678,73.9,50.061Zm0-15a12.776,12.776,0,0,1-7.158,3.159c-.039.006-.079.008-.118.017-.282.039-.553.071-.8.1.2-2.119.894-5.689,3.276-8.072s5.953-3.068,8.076-3.27C76.972,29.1,76.276,32.674,73.9,35.057ZM59.006,20.39c0-4.91,3.2-9.281,4.993-11.346,1.795,2.06,4.987,6.415,4.987,11.346a14.8,14.8,0,0,1-2.006,7.066c-.12.11-.245.21-.361.326A13.282,13.282,0,0,0,64,31.606a13.262,13.262,0,0,0-2.623-3.824c-.117-.117-.243-.218-.364-.329A14.79,14.79,0,0,1,59.006,20.39Zm-8.179,6.591c2.118.2,5.689.893,8.071,3.275s3.067,5.948,3.27,8.071c-.246-.023-.515-.056-.8-.094-.04-.009-.081-.011-.122-.017A12.768,12.768,0,0,1,54.1,35.057C51.729,32.688,51.03,29.1,50.827,26.981Zm0,15.01c2.124.2,5.7.9,8.07,3.269s3.067,5.948,3.27,8.071c-2.124-.2-5.7-.9-8.07-3.27S51.031,44.114,50.828,41.991Zm0,15c2.118.2,5.689.893,8.071,3.276,2.368,2.367,3.067,5.947,3.27,8.07-2.124-.2-5.7-.9-8.07-3.27S51.03,59.112,50.827,56.989Zm0,15c2.118.2,5.689.893,8.071,3.276,2.368,2.367,3.067,5.947,3.27,8.07-2.124-.2-5.7-.9-8.07-3.27S51.03,74.116,50.827,71.993Zm0,15c2.118.2,5.689.893,8.071,3.275s3.067,5.948,3.27,8.071c-2.124-.2-5.7-.9-8.07-3.27S51.03,89.12,50.827,87ZM21.193,41.909c.146,0,.237,0,.3,0s.153,0,.3,0c.227,0,.556-.007.951-.028v2.56a14.243,14.243,0,0,0-1.25,2.168,14.217,14.217,0,0,0-1.267-2.19,1.612,1.612,0,0,0,.017-.169V41.881C20.638,41.9,20.967,41.909,21.193,41.909Zm-.951,17.216v-2.24c.4.021.725.028.951.028.146,0,.237,0,.3,0s.153,0,.3,0c.227,0,.556-.007.951-.028v2.559a14.211,14.211,0,0,0-1.251,2.169,14.3,14.3,0,0,0-1.278-2.2A1.762,1.762,0,0,0,20.242,59.125Zm0,15V71.889c.4.021.725.028.951.028.146,0,.237,0,.3,0s.153,0,.3,0c.227,0,.556-.007.951-.028v2.559a14.259,14.259,0,0,0-1.251,2.169,14.28,14.28,0,0,0-1.279-2.206A1.68,1.68,0,0,0,20.242,74.125Zm0,15.329V86.893c.4.021.726.028.952.028.145,0,.236,0,.3,0s.153,0,.3,0c.227,0,.556-.007.952-.028v2.19a1.758,1.758,0,0,0,.033.326,14.234,14.234,0,0,0-1.283,2.212A14.318,14.318,0,0,0,20.242,89.454Zm11.149,5.619c-2.37,2.369-5.954,3.068-8.077,3.271.2-2.118.893-5.689,3.276-8.072s5.953-3.067,8.076-3.27C34.468,89.12,33.772,92.69,31.391,95.073Zm0-15c-2.37,2.369-5.954,3.068-8.077,3.271.2-2.118.893-5.689,3.276-8.071S32.543,72.2,34.666,72C34.468,74.116,33.772,77.687,31.391,80.069Zm0-15c-2.37,2.369-5.954,3.068-8.077,3.27.2-2.117.893-5.688,3.276-8.07s5.953-3.068,8.076-3.271C34.468,59.112,33.772,62.682,31.391,65.065Zm0-15c-2.37,2.369-5.954,3.068-8.077,3.271.2-2.119.893-5.689,3.276-8.072s5.953-3.068,8.076-3.27C34.468,44.108,33.772,47.678,31.391,50.061Zm0-15a12.776,12.776,0,0,1-7.158,3.159c-.039.006-.079.008-.117.017-.283.039-.554.071-.8.1.2-2.119.893-5.689,3.276-8.072s5.953-3.068,8.076-3.27C34.468,29.1,33.772,32.674,31.391,35.057ZM16.5,20.39c0-4.91,3.2-9.281,4.993-11.346,1.795,2.06,4.987,6.415,4.987,11.346a14.792,14.792,0,0,1-2.006,7.066c-.12.11-.245.21-.361.326a13.258,13.258,0,0,0-2.623,3.823,13.278,13.278,0,0,0-2.623-3.823c-.117-.117-.243-.218-.364-.329A14.781,14.781,0,0,1,16.5,20.39ZM8.323,26.981c2.118.2,5.689.893,8.072,3.275,2.367,2.368,3.066,5.948,3.269,8.071-.246-.023-.515-.056-.8-.094-.04-.009-.081-.011-.121-.017a12.771,12.771,0,0,1-7.154-3.159C9.225,32.688,8.526,29.1,8.323,26.981Zm0,15.01c2.124.2,5.7.9,8.071,3.269s3.066,5.948,3.269,8.071c-2.124-.2-5.7-.9-8.07-3.27S8.527,44.114,8.324,41.991Zm0,15c2.118.2,5.689.893,8.072,3.276,2.367,2.367,3.066,5.947,3.269,8.07-2.124-.2-5.7-.9-8.07-3.27S8.526,59.112,8.323,56.989Zm0,15c2.118.2,5.689.893,8.072,3.276,2.367,2.367,3.066,5.947,3.269,8.07-2.124-.2-5.7-.9-8.07-3.27S8.526,74.116,8.323,71.993Zm0,15c2.118.2,5.689.893,8.072,3.275,2.367,2.368,3.066,5.948,3.269,8.071-2.124-.2-5.7-.9-8.07-3.27S8.526,89.12,8.323,87ZM20.242,119.75V101.9c.4.021.726.028.952.028.145,0,.236,0,.3,0s.153,0,.3,0c.227,0,.556-.007.952-.028V119.75Zm42.5,0V101.9c.4.021.726.028.952.028.145,0,.235,0,.3,0s.152,0,.3,0c.227,0,.556-.007.952-.028V119.75Zm45,0h-2.5V101.9c.4.021.726.028.952.028.145,0,.235,0,.3,0s.152,0,.3,0c.226,0,.556-.007.952-.028ZM116.4,95.073c-2.37,2.369-5.953,3.068-8.076,3.271.2-2.118.894-5.689,3.276-8.072s5.953-3.067,8.076-3.27C119.476,89.12,118.78,92.69,116.4,95.073Zm0-15c-2.37,2.369-5.953,3.068-8.076,3.271.2-2.118.894-5.689,3.276-8.071S117.551,72.2,119.674,72C119.476,74.116,118.78,77.687,116.4,80.069Zm0-15c-2.37,2.369-5.954,3.068-8.076,3.27.2-2.118.894-5.688,3.276-8.07s5.953-3.068,8.076-3.271C119.476,59.112,118.78,62.682,116.4,65.065Z"/>
</svg>
