<svg width="18" height="18" viewBox="0 0 18 18" fill="none" xmlns="http://www.w3.org/2000/svg">
<path fill-rule="evenodd" clip-rule="evenodd" d="M9 0C4.02944 0 0 4.02944 0 9C0 13.9706 4.02944 18 9 18C13.9706 18 18 13.9706 18 9C18 4.02944 13.9706 0 9 0ZM1.22727 9C1.22702 5.59578 3.44202 2.5875 6.69281 1.57702C9.94361 0.566542 13.4737 1.78901 15.4034 4.59349C17.333 7.39798 17.2132 11.1318 15.1077 13.8068C14.17 12.4101 12.8094 11.3506 11.2255 10.7836C11.91 10.0509 12.2852 9.08219 12.2727 8.07955C12.2727 6.03409 10.8041 4.39773 9 4.39773C7.19591 4.39773 5.72727 6.03409 5.72727 8.07955C5.7171 9.11797 6.12383 10.1171 6.85636 10.8532C5.2612 11.4258 3.91573 12.5369 3.05182 13.995C1.87249 12.5979 1.22609 10.8283 1.22727 9ZM9.20455 10.4318C8.98043 10.4327 8.75651 10.445 8.53364 10.4686C7.53805 10.1076 6.89651 9.13698 6.95455 8.07955C6.95455 6.72545 7.87091 5.625 9 5.625C10.1291 5.625 11.0455 6.72545 11.0455 8.07955C11.0959 9.10723 10.4925 10.0549 9.54 10.4441C9.42955 10.44 9.31909 10.4318 9.20455 10.4318ZM3.96 14.9318C4.84915 13.1959 6.52835 12.0022 8.46 11.7327C8.85824 11.8105 9.26864 11.8007 9.66273 11.7041C11.5718 11.9619 13.2573 13.0805 14.2364 14.7395C11.3514 17.4024 6.93018 17.485 3.94773 14.9318H3.96Z" fill="#FF8908"/>
</svg>
