<?xml version="1.0" encoding="UTF-8"?>
<!-- Creator: CorelDRAW 2019 (64-Bit) -->
<svg width="15mm" height="6mm" clip-rule="evenodd" fill-rule="evenodd" image-rendering="optimizeQuality" shape-rendering="geometricPrecision" text-rendering="geometricPrecision" version="1.1" viewBox="0 0 170.7 68.281" xml:space="preserve" xmlns="http://www.w3.org/2000/svg">
 
  
  
  
  
  
  
  
  
  
  
  
  
  
  
  
  
  
  
  
  
  
  
  
  
  
  
  
  
  
  
  
  
  
  
  
  
  
  
  
  
  
  
  
  
  
  
  
  
  
  
  
  
  <g transform="matrix(.33407 0 0 .33407 -56.737 -9.0515)" fill-rule="nonzero"><g stroke-width=".62927"><path d="m528.48 169.69c-7.0037 8.3504-20.52 17.349-46.333 17.349-8.1742 0-15.027-0.88727-20.804-2.3723 7.419 3.8763 17.708 6.5632 31.96 6.5632 35.239 0 47.585-16.776 51.675-25.775-4.235 1.29-9.8543 2.8191-16.506 4.235z" fill="#ff8908"/><path d="m439.14 164.6c2.2402 7.0604 9.3194 20.741 31.079 26.574 5.7767 1.032 12.308 1.6172 19.69 1.6172 25.492 0 41.399-6.9974 51.266-15.052 8.2811-8.3629 10.005-16.952 10.112-17.494 0 0-28.267 11.119-62.99 11.119-19.885 0-37.611-3.6434-49.158-6.7646zm89.343 5.0782c6.6514-1.4158 12.271-2.9512 16.506-4.235-4.0902 8.9985-16.443 25.775-51.675 25.775-14.253 0-24.541-2.687-31.96-6.5632 5.7704 1.4851 12.629 2.3723 20.804 2.3723 25.806 0 39.329-8.9985 46.333-17.349z" fill="#ffb107"/><path d="m489.91 192.8c-46.541 0-59.201-23.308-62.549-33.842 13.328 3.6057 33.792 7.8029 56.754 7.8029 40.091 0 72.598-12.787 72.731-12.837-0.23283 1.2334-7.7966 38.87-66.935 38.87zm-5.7955-50.373c27.832 0 50.398 5.462 50.398 10.723 0 5.2607-22.565 9.5271-50.398 9.5271s-50.398-4.2664-50.398-9.5271c0-5.2607 22.565-10.723 50.398-10.723zm72.737 11.497h-6e-3c-0.11327-0.044-32.627-12.894-72.731-12.894-40.166 0-72.737 12.868-72.737 12.868 0 20.048 17.55 43.992 72.737 43.992 55.155 0 72.718-23.321 72.737-43.961z" fill="#15202b"/><path d="m465.3 148.99c-2.7688-1.6613-7.4694-2.7499-12.806-2.7499-5.3362 0-10.037 1.0886-12.806 2.7499h-2.6052v3.4547c0 3.4295 6.903 6.2046 15.411 6.2046 8.2245 0 14.926-2.5989 15.367-5.8648h0.0441v-3.7945z" fill="#ff8908"/><path d="m467.91 148.99c0 3.4232-6.8968 6.2046-15.411 6.2046s-15.411-2.7751-15.411-6.2046c0-3.4232 6.903-6.2046 15.411-6.2046 8.514 0 15.411 2.7751 15.411 6.2046z" fill="#ffb107"/><path d="m462.05 148.29s-4.0714 2.7436-9.0929 2.7436c-5.0216 0-9.0929-2.7436-9.0929-2.7436s4.0714-2.7436 9.0929-2.7436c5.0215 0 9.0929 2.7436 9.0929 2.7436z" fill="#ff8908"/><path d="m479.16 149.28c-1.6046-2.7939-5.1789-6.041-9.8417-8.6398s-9.3006-3.9392-12.522-3.8385l-2.278-1.2711-1.6801 3.0142c-1.6676 2.989 3.0016 8.7783 10.433 12.925 7.1799 4.0084 14.297 5.009 16.279 2.3723l0.0378 0.0189 1.85-3.3099z" fill="#ff8908"/><path d="m481.44 150.55c-1.6676 2.989-9.0488 2.0514-16.48-2.0955-7.4316-4.1469-12.107-9.9361-10.433-12.925 1.6676-2.9953 9.0488-2.0514 16.48 2.0954 7.4316 4.1469 12.101 9.9361 10.433 12.925z" fill="#ffb107"/><path d="m476.66 147.1s-4.8894 0.40902-9.2754-2.0388c-4.386-2.4478-6.6073-6.8275-6.6073-6.8275s4.8894-0.40902 9.2754 2.0388c4.386 2.4478 6.6073 6.8275 6.6073 6.8275z" fill="#ff8908"/><path d="m447.4 128.7c-1.7556-0.9439-4.688-1.4788-7.9854-1.3214-3.2974 0.15731-6.1668 0.96906-7.8218 2.0766l-1.6109 0.0755 0.10069 2.1332c0.10068 2.1143 4.4426 3.6246 9.697 3.3729 5.0782-0.23912 9.137-2.0451 9.3131-4.0714h0.0252l-0.11327-2.3409-1.6109 0.0755z" fill="#ff8908"/><path d="m449.01 128.63c0.10068 2.1143-4.0776 4.0336-9.332 4.2853-5.2544 0.25171-9.5963-1.2648-9.697-3.3792-0.10068-2.1143 4.0776-4.0336 9.332-4.2853 5.2544-0.2517 9.5963 1.2585 9.697 3.3792z" fill="#ffb107"/><path d="m445.38 128.37s-2.4353 1.8123-5.5312 1.9633c-3.1023 0.14473-5.6948-1.4284-5.6948-1.4284s2.4353-1.8123 5.5312-1.9633c3.1023-0.14473 5.6949 1.4221 5.6949 1.4221z" fill="#ff8908"/><path d="m423.95 136.07c-0.16361 1.3403 4.3734 1.957 4.3734 1.957s-2.6618 0.64814-1.5795 2.1143c0.89356 1.2145 3.87-0.33351 4.8768-0.91244 0.88727 0.49712 1.8375 0.82434 2.6807 1.0635-1.0257 0.47824-2.0388 0.97536-3.0394 1.4977-2.9198-1.7682-8.2182 0.49712-7.8973 1.7305 0.32722 1.2837 2.5926 0.77399 2.5926 0.77399-2.5296 0.70478-6.9282 4.8768-5.2166 6.2423 1.7116 1.3655 6.4122-4.3545 6.4122-4.3545s-1.3718 4.2161 1.5669 3.977c2.687-0.22024 2.8883-6.815 2.9009-7.9539 0.87468-0.45307 1.762-0.88726 2.6492-1.3089-0.19507 0.58522-0.32721 1.1956-0.38385 1.8123-0.81175 0.774-3.2156 3.2218-2.3031 4.4426 1.0949 1.4599 2.4793-0.90614 2.4793-0.90614s-0.71107 4.5181 0.62297 4.751c1.334 0.22653 1.4536-3.5176 0.74253-4.9712 0 0 0.69849 1.2522 1.4221 0.87468 0.6922-0.35869-0.4216-3.6623-2.4164-4.3231 0.0818-0.6859 0.258-1.3592 0.52229-1.9948 1.5354-0.71108 3.0834-1.3844 4.6566-1.9948l-0.19507-0.49712c-1.4788 0.57263-2.9324 1.2019-4.3797 1.8626l-0.14473-0.0378c-0.89356-0.23912-1.9696-0.57263-2.9513-1.1075 0.0189-2.1269-2.9009-4.2035-3.4547-3.6309-0.56634 0.59151 0.43419 1.6172 0.43419 1.6172-1.1893-1.1012-4.8139-2.0577-4.9775-0.71736z" fill="#6ba431"/><path d="m533.92 130.73c0.81176 1.0823-2.8254 3.87-2.8254 3.87s2.6366-0.76142 2.4227 1.0509c-0.17619 1.4976-3.5302 1.6298-4.688 1.6298-0.52229 0.86839-1.183 1.6235-1.7997 2.2528 1.1264-0.0881 2.2528-0.15732 3.3792-0.20766 1.6613-2.9827 7.3813-3.6434 7.7148-2.4164 0.35239 1.2774-1.8626 1.9633-1.8626 1.9633 2.5485-0.64185 8.4322 0.79917 7.6267 2.838-0.80547 2.0325-7.7274-0.60409-7.7274-0.60409s3.2848 2.9827 0.61039 4.2287c-2.4478 1.139-5.8836-4.4867-6.4626-5.4683-0.98166 0.0378-1.9696 0.10068-2.9513 0.1762 0.45936 0.41531 0.87468 0.87468 1.2334 1.3844 1.0886 0.26429 4.3923 1.2019 4.1972 2.7121-0.22653 1.8123-2.6052 0.44048-2.6052 0.44048s2.8569 3.5742 1.8123 4.4363c-1.0446 0.86209-3.0079-2.3283-3.1086-3.9518 0 0 0.0126 1.4347-0.79916 1.4662-0.78029 0.0315-1.4473-3.3918-0.044-4.9523-0.41532-0.55376-0.89985-1.0509-1.441-1.4788-1.6864 0.15102-3.3666 0.32722-5.0341 0.57892l-0.0818-0.52858c1.5669-0.23912 3.1463-0.40902 4.7258-0.55375l0.10698-0.10698c0.65444-0.64814 1.4284-1.4725 2.0136-2.429-1.0698-1.8375 0.44049-5.0908 1.1956-4.8642 0.78658 0.23283 0.4279 1.6172 0.4279 1.6172 0.48453-1.548 3.1589-4.1783 3.9644-3.0897z" fill="#517f1c"/><path d="m478.31 159.28c0.59151 0.59151 2.6178-1.3781 2.6178-1.3781s-0.70478 1.5417 0.4279 1.5732c0.93131 0.0252 1.3152-2.0136 1.4158-2.7184 0.57893-0.23912 1.1012-0.57892 1.5417-0.89356-0.15732 0.67961-0.30205 1.3592-0.4279 2.0514-1.9759 0.74883-2.8946 4.1846-2.171 4.4992 0.74882 0.32722 1.3655-0.96278 1.3655-0.96278-0.62297 1.4977-0.27058 5.2292 1.0509 4.9146 1.3152-0.31463 0.32722-4.7761 0.32722-4.7761s1.5291 2.278 2.5296 0.75512c0.91872-1.397-2.215-4.0021-2.7625-4.4426 0.11327-0.5978 0.23912-1.1956 0.37127-1.7871 0.20765 0.32092 0.45936 0.61668 0.73624 0.88097 0.0629 0.6859 0.33351 2.7939 1.2774 2.8128 1.1264 0.0252 0.50341-1.5543 0.50341-1.5543s1.9256 2.0703 2.5485 1.5102c0.61668-0.56004-1.1516-2.0451-2.1332-2.2591 0 0 0.87467 0.13844 0.96906-0.35868 0.0881-0.47195-1.9444-1.1893-3.0205-0.47195-0.30205-0.30205-0.56005-0.64186-0.774-1.0131 0.23912-1.0131 0.50341-2.0262 0.80546-3.0268l-0.31463-0.0944c-0.28317 0.9376-0.53488 1.8878-0.76771 2.8443l-0.0755 0.0566c-0.45936 0.3461-1.032 0.74254-1.6613 1.0131-1.0257-0.81804-3.1526-0.18878-3.0834 0.29576 0.0692 0.50341 0.95019 0.40902 0.95019 0.40902-0.99424 0.15732-2.838 1.5543-2.2465 2.1458z" fill="#6ba431"/><path d="m484.41 128.2 37.825 21.112-0.012 0.012c-0.0692 0.0629-0.44049 0.40902-1.0635 0.91243-2.945 2.2905-11.704 7.5952-23.264 0.90615-17.456-10.1-13.485-22.937-13.485-22.937zm25.712 21.118c0.0252 0.39014 0.0692 0.79287 0.23912 1.1516 0.16361 0.35868 0.46565 0.66703 0.84951 0.76142 0.4216 0.10068 0.87468-0.0818 1.1704-0.39644 0.29576-0.31464 0.45307-0.73624 0.52229-1.1578 0.18878-1.1956-0.2517-2.3912-0.6859-3.5176-0.37127-0.95648-1.1578-1.4536-1.6613-0.30834-0.45307 1.032-0.49083 2.366-0.42161 3.4736zm-6.3052-2.4667c-0.18878 0.3461-0.35868 0.70478-0.40902 1.0949-0.0503 0.39014 0.0378 0.81804 0.31463 1.0949 0.30205 0.30834 0.78029 0.39644 1.1956 0.28946 0.41531-0.10697 0.77399-0.38385 1.0572-0.70478 0.79917-0.90614 1.0572-2.1521 1.29-3.3414 0.19507-1.0068-0.20766-1.85-1.246-1.1516-0.93131 0.62926-1.6738 1.7431-2.2087 2.7184zm-5.5061-3.0771c-0.18878 0.3461-0.35868 0.71107-0.40902 1.0949-0.0503 0.39014 0.0378 0.81804 0.31463 1.0949 0.30205 0.30834 0.78029 0.39014 1.2019 0.28946 0.41532-0.10697 0.774-0.38385 1.0572-0.70478 0.79917-0.90614 1.0572-2.1521 1.29-3.3414 0.19508-1.0068-0.20765-1.85-1.2396-1.1516-0.93131 0.62927-1.6738 1.7431-2.2087 2.7121zm-5.204-3.7315c-0.18878 0.34609-0.36497 0.71107-0.40902 1.1012-0.0503 0.39015 0.0378 0.81175 0.31463 1.0949 0.30205 0.30834 0.78029 0.39015 1.2019 0.28947 0.41532-0.10698 0.774-0.38386 1.0572-0.70478 0.79917-0.90614 1.0572-2.1521 1.29-3.3414 0.19508-1.0068-0.20765-1.85-1.2396-1.1516-0.93131 0.62927-1.6738 1.7431-2.2087 2.7121zm-4.0902-4.6251c-0.33352 0.20766-0.66073 0.44049-0.89985 0.74883-0.23913 0.31463-0.36498 0.72995-0.27059 1.1075 0.11327 0.41531 0.48454 0.72994 0.89985 0.84321 0.41532 0.11327 0.8621 0.0503 1.2711-0.0881 1.139-0.39644 1.9822-1.3529 2.7751-2.2716 0.66702-0.78029 0.72995-1.7116-0.516-1.6109-1.1201 0.0881-2.3157 0.6922-3.2596 1.2711z" fill="#cf2832"/></g><g fill="#e16253"><g stroke-width=".62927"><path d="m480.25 125.87s-6.2172 16.757 15.6 28.934c21.823 12.176 30.06-3.4484 30.06-3.4484l-3.6749-2.0514s-10.018 10.112-24.34 1.8312c-17.456-10.1-13.485-22.937-13.485-22.937l-4.1657-2.322z"/><path d="m489.02 135.42c-0.33352 0.20766-0.66073 0.44049-0.89985 0.74883-0.23913 0.31463-0.36498 0.72995-0.27059 1.1075 0.11327 0.41531 0.48454 0.72994 0.89985 0.84321 0.41532 0.11327 0.8621 0.0503 1.2711-0.0881 1.139-0.39644 1.9822-1.3529 2.7751-2.2716 0.66702-0.78029 0.72995-1.7116-0.516-1.6109-1.1201 0.0881-2.3157 0.6922-3.2596 1.2711z"/><path d="m493.11 140.04c-0.18878 0.34609-0.36497 0.71107-0.40902 1.1012-0.0503 0.39015 0.0378 0.81175 0.31463 1.0949 0.30205 0.30834 0.78029 0.39015 1.2019 0.28947 0.41532-0.10698 0.774-0.38386 1.0572-0.70478 0.79917-0.90614 1.0572-2.1521 1.29-3.3414 0.19508-1.0068-0.20765-1.85-1.2396-1.1516-0.93131 0.62927-1.6738 1.7431-2.2087 2.7121z"/><path d="m498.31 143.78c-0.18878 0.3461-0.35868 0.71107-0.40902 1.0949-0.0503 0.39014 0.0378 0.81804 0.31463 1.0949 0.30205 0.30834 0.78029 0.39014 1.2019 0.28946 0.41532-0.10697 0.774-0.38385 1.0572-0.70478 0.79917-0.90614 1.0572-2.1521 1.29-3.3414 0.19508-1.0068-0.20765-1.85-1.2396-1.1516-0.93131 0.62927-1.6738 1.7431-2.2087 2.7121z"/><path d="m503.82 146.85c-0.18878 0.3461-0.35868 0.70478-0.40902 1.0949-0.0503 0.39014 0.0378 0.81804 0.31463 1.0949 0.30205 0.30834 0.78029 0.39644 1.1956 0.28946 0.41531-0.10697 0.77399-0.38385 1.0572-0.70478 0.79917-0.90614 1.0572-2.1521 1.29-3.3414 0.19507-1.0068-0.20766-1.85-1.246-1.1516-0.93131 0.62926-1.6738 1.7431-2.2087 2.7184z"/></g><path d="m510.12 149.32c0.0252 0.39014 0.0692 0.79287 0.23912 1.1516 0.16361 0.35868 0.46565 0.66703 0.84951 0.76142 0.4216 0.10068 0.87468-0.0818 1.1704-0.39644 0.29576-0.31464 0.45307-0.73624 0.52229-1.1578 0.18878-1.1956-0.2517-2.3912-0.6859-3.5176-0.37127-0.95648-1.1578-1.4536-1.6613-0.30834-0.45307 1.032-0.49083 2.366-0.42161 3.4736z" stroke="#e16253" stroke-miterlimit="10" stroke-width=".87"/></g><path d="m536.65 114.01-37.718 10.968 6e-3 6e-3v6e-3c0.0503 0.0692 0.30834 0.44678 0.75512 1.0257 2.1395 2.624 8.7971 9.0866 20.376 5.5312 17.481-5.3739 16.581-17.531 16.581-17.531zm-27.021 13.435c-0.10069 0.33981-0.22654 0.6859-0.44049 0.96907-0.22024 0.28317-0.54746 0.49712-0.90614 0.49712-0.39015 0-0.75512-0.25171-0.95019-0.58522-0.19508-0.33351-0.25171-0.74253-0.22654-1.1327 0.0755-1.0949 0.70478-2.0577 1.3215-2.9701 0.52229-0.774 1.3215-1.0509 1.5354 0.0629 0.18878 1.0005-0.0503 2.1898-0.33351 3.1589zm6.0724-0.89985c0.0944 0.3461 0.1762 0.69849 0.13844 1.0509-0.0377 0.35238-0.20136 0.71107-0.50341 0.90614-0.32722 0.20766-0.774 0.18878-1.1201 0.0126-0.34609-0.17619-0.60409-0.49712-0.79287-0.83692-0.52229-0.96278-0.49712-2.1206-0.45936-3.2156 0.0315-0.93131 0.56004-1.592 1.334-0.76141 0.69219 0.74883 1.1201 1.8815 1.397 2.8443zm5.4935-1.5983c0.0944 0.34609 0.1762 0.69848 0.13844 1.0572-0.0377 0.35239-0.20136 0.71107-0.50341 0.90615-0.32722 0.20765-0.7677 0.18878-1.1201 0.0126-0.3461-0.17619-0.6041-0.49712-0.79288-0.83692-0.52229-0.96278-0.49712-2.1206-0.45936-3.2156 0.0315-0.93132 0.56004-1.592 1.334-0.76141 0.69849 0.74882 1.1201 1.8815 1.397 2.8506zm5.3551-2.2402c0.0944 0.3461 0.17619 0.69848 0.13844 1.0572-0.0315 0.35238-0.20137 0.71107-0.50342 0.90614-0.32721 0.21395-0.7677 0.18878-1.1138 0.0126-0.34609-0.17619-0.60409-0.49712-0.79287-0.83692-0.52229-0.96278-0.49712-2.1206-0.45937-3.2156 0.0315-0.93131 0.56005-1.592 1.334-0.76141 0.69848 0.74883 1.1264 1.8815 1.397 2.8443zm4.5559-3.2533c0.258 0.25171 0.49712 0.52229 0.64185 0.84951 0.14474 0.32722 0.1762 0.71737 0.0126 1.032-0.18249 0.3461-0.57892 0.54746-0.96907 0.56005-0.39014 0.0126-0.774-0.13215-1.1012-0.33981-0.93132-0.58522-1.4788-1.5983-1.9885-2.5674-0.43419-0.82434-0.30204-1.6613 0.78029-1.3215 0.97537 0.30834 1.9067 1.0823 2.624 1.7871z" fill="#cf2832" stroke-width=".62927"/><g fill="#e16253" stroke-width=".62927"><path d="m540.8 112.8s2.0892 16.071-19.671 22.396-25.863-9.1621-25.863-9.1621l3.6623-1.0635s6.7961 10.974 21.137 6.5632c17.481-5.3739 16.581-17.531 16.581-17.531l4.1532-1.2082z"/><path d="m531.11 119.45c0.258 0.25171 0.49712 0.52229 0.64185 0.84951s0.17619 0.71737 0.0126 1.032c-0.18248 0.3461-0.57892 0.54746-0.96907 0.56005-0.39014 0.0126-0.77399-0.13215-1.1012-0.33981-0.93132-0.58522-1.4788-1.5983-1.9885-2.5674-0.4342-0.82434-0.30205-1.6613 0.78029-1.3215 0.97536 0.30834 1.9067 1.0823 2.624 1.7871z"/><path d="m526.55 122.71c0.0944 0.3461 0.1762 0.69848 0.13844 1.0572-0.0315 0.35238-0.20137 0.71107-0.50341 0.90614-0.32722 0.21395-0.76771 0.18878-1.1138 0.0126-0.3461-0.17619-0.6041-0.49712-0.79288-0.83692-0.52229-0.96278-0.49712-2.1206-0.45936-3.2156 0.0315-0.93131 0.56004-1.592 1.334-0.76141 0.69849 0.74883 1.1264 1.8815 1.397 2.8443z"/><path d="m521.2 124.95c0.0944 0.34609 0.17619 0.69848 0.13844 1.0572-0.0378 0.35239-0.20137 0.71107-0.50342 0.90615-0.32722 0.20765-0.7677 0.18878-1.1201 0.0126-0.3461-0.17619-0.6041-0.49712-0.79288-0.83692-0.52229-0.96278-0.49712-2.1206-0.45936-3.2156 0.0315-0.93132 0.56005-1.592 1.334-0.76141 0.69849 0.74882 1.1201 1.8815 1.397 2.8506z"/><path d="m515.71 126.55c0.0944 0.3461 0.17619 0.69849 0.13843 1.0509-0.0377 0.35238-0.20136 0.71107-0.50341 0.90614-0.32722 0.20766-0.774 0.18878-1.1201 0.0126-0.3461-0.17619-0.6041-0.49712-0.79288-0.83692-0.52229-0.96278-0.49712-2.1206-0.45936-3.2156 0.0315-0.93131 0.56005-1.592 1.334-0.76141 0.69219 0.74883 1.1201 1.8815 1.397 2.8443z"/><path d="m509.63 127.45c-0.10068 0.33981-0.22654 0.6859-0.44049 0.96907-0.22024 0.28317-0.54746 0.49712-0.90614 0.49712-0.39015 0-0.75512-0.25171-0.95019-0.58522s-0.25171-0.74253-0.22654-1.1327c0.0755-1.0949 0.70478-2.0577 1.3215-2.9701 0.52229-0.774 1.3215-1.0509 1.5354 0.0629 0.18878 1.0005-0.0503 2.1898-0.33351 3.1589z"/></g><g stroke-width=".62927"><path d="m481.88 130.97c-1.6046-2.8002-5.1789-6.041-9.8417-8.6398s-9.3006-3.9392-12.522-3.8385l-2.278-1.2711-1.6801 3.0142c-1.6676 2.989 3.0016 8.7783 10.433 12.925 7.1862 4.0084 14.297 5.009 16.279 2.3723l0.0378 0.0189 1.85-3.3162-2.2779-1.2711z" fill="#517f1c"/><path d="m484.16 132.23c-1.6676 2.989-9.0488 2.0514-16.48-2.0955s-12.107-9.9361-10.433-12.925c1.6676-2.989 9.0488-2.0514 16.48 2.0954 7.4316 4.1469 12.101 9.9361 10.433 12.925z" fill="#517f1c"/><path d="m483.35 131.79c-1.5669 2.8128-8.5077 1.9318-15.499-1.9696-6.9911-3.9014-11.383-9.3446-9.8103-12.157 1.5669-2.8128 8.5077-1.9318 15.499 1.9696 6.9911 3.9014 11.383 9.3446 9.8102 12.157z" fill="#6ba431"/><path d="m481.4 129.86c-1.3278 2.3786-7.1925 1.6361-13.101-1.6676-5.9088-3.2974-9.6278-7.8973-8.3-10.282 1.3278-2.3786 7.1925-1.6298 13.108 1.6676 5.9088 3.2974 9.6215 7.9036 8.3 10.282z" fill="#b3e27d"/></g><g fill="#6ba431" stroke-width=".62927"><path d="m472.03 128.59c-5.5942-1.1075-9.6592-6.0724-8.3189-7.1359 1.139-0.90615 3.5742 0.42161 4.5999 0.95019 1.8878 0.97536 3.398 2.4227 4.6251 4.1343 0.28946 0.40902 0.9439 1.139 0.82434 1.699-0.14474 0.69849-1.2648 0.44049-1.7368 0.3461z"/><path d="m473.09 124.33c-1.7997 1.183 3.8637 6.2297 6.2675 4.9272 2.4038-1.3026-2.0136-7.7274-6.2675-4.9272z"/><path d="m471.83 122.97c-1.4914-0.32093-2.9324-1.3215-4.1657-2.0074-0.40902-0.23283-3.5931-1.9507-2.3912-2.6555 0.0252-0.0189 0.0566-0.0315 0.0881-0.0503 0.92502-0.44049 2.3849 0.15731 3.2533 0.46566 1.4284 0.5097 2.838 1.183 4.1028 2.0199 0.45307 0.30205 1.6676 1.0068 1.6109 1.6864-0.0252 0.30205-0.28946 0.41532-0.55376 0.49083-0.64814 0.19507-1.2963 0.18249-1.9444 0.0503z"/></g><g stroke-width=".62927"><path d="m463.48 114.68-0.0252 3.4547c-0.0252 3.4232 6.859 6.2486 15.367 6.3115 8.2245 0.0566 14.945-2.4919 15.411-5.7578h0.044l0.0252-3.7945c0.0252-3.4295-6.859-6.2549-15.367-6.3115-8.514-0.0629-15.43 2.6681-15.455 6.0913zm29.903 0.21395c-0.0252 3.2218-6.5318 5.7892-14.536 5.7263-8.0043-0.0566-14.473-2.7121-14.448-5.934 0.0252-3.2218 6.5318-5.7892 14.53-5.7326 8.0043 0.0566 14.473 2.7121 14.448 5.934z" fill="#517f1c"/><path d="m493.38 114.9c-0.0252 3.2218-6.5318 5.7892-14.536 5.7263-8.0043-0.0566-14.473-2.7121-14.448-5.934 0.0252-3.2218 6.5318-5.7892 14.53-5.7326 8.0043 0.0566 14.473 2.7121 14.448 5.934zm-2.6429-0.75512c0.0189-2.7247-5.4494-4.9712-12.22-5.0215-6.7709-0.0503-12.271 2.1206-12.29 4.8453-0.0189 2.7247 5.4494 4.9712 12.22 5.0216 6.7646 0.0503 12.271-2.1206 12.29-4.8454z" fill="#6ba431"/><path d="m490.74 114.15c-0.0189 2.7247-5.525 4.8894-12.29 4.8454-6.7709-0.0503-12.239-2.2968-12.22-5.0215 0.0189-2.7247 5.5187-4.8957 12.29-4.8454 6.7709 0.0503 12.239 2.2968 12.22 5.0215zm-9.9487-0.84951c-1.0068 1.9004 6.3808 3.5994 7.8658 1.3026s-5.4809-5.8081-7.8658-1.3026zm-1.7557-0.58521c0.62927-0.18878 1.2082-0.49083 1.6801-0.97537 0.18878-0.19507 0.37127-0.42161 0.24542-0.69848-0.27688-0.62927-1.6801-0.66073-2.2213-0.70478-1.5165-0.12585-3.0645-0.0378-4.5685 0.20766-0.91244 0.14473-2.4793 0.32092-3.0771 1.1578-0.0189 0.0252-0.0378 0.0566-0.0566 0.0818-0.71107 1.1956 2.9072 1.1704 3.3792 1.1767 1.4096 0.0126 3.1589 0.19507 4.6188-0.23912zm2.8695 4.8328c0.45936-0.14473 1.5606-0.45937 1.3592-1.139-0.1699-0.54746-1.0886-0.88098-1.5417-1.0949-1.9004-0.91243-3.9266-1.4536-6.0472-1.397-1.1578 0.0315-3.9329 0.0378-4.493 1.3781-0.66073 1.5794 5.2921 3.977 10.729 2.2528z" fill="#b3e27d"/></g><g fill="#6ba431" stroke-width=".62927"><path d="m481.9 117.54c-5.4369 1.7242-11.39-0.67332-10.729-2.2528 0.56005-1.3403 3.3351-1.3466 4.493-1.3781 2.1206-0.0566 4.1406 0.48454 6.0472 1.397 0.45307 0.21395 1.3718 0.54746 1.5417 1.0949 0.20766 0.67961-0.89985 0.99424-1.3592 1.139z"/><path d="m480.79 113.3c-1.0068 1.9004 6.3808 3.5994 7.8658 1.3026s-5.4809-5.8081-7.8658-1.3026z"/><path d="m479.03 112.71c-1.4599 0.4342-3.2092 0.258-4.6188 0.23912-0.47195-6e-3 -4.0902 0.0189-3.3792-1.1767 0.0189-0.0315 0.0378-0.0566 0.0566-0.0818 0.5978-0.83063 2.1647-1.0068 3.0771-1.1578 1.4976-0.23912 3.0519-0.33351 4.5685-0.20766 0.54117 0.044 1.9444 0.0818 2.2213 0.70478 0.11956 0.27688-0.0566 0.50342-0.24542 0.69849-0.47194 0.47824-1.0509 0.78658-1.6801 0.97536z"/></g><g fill="#ff8908" stroke-width=".62927"><path d="m359.4 91.049c-0.0692 0.0566-0.72365 0.3398-1.9696 0.83692-1.246 0.516-2.4541 1.2019-3.612 2.064-1.1516 0.88727-2.2087 1.6046-3.1715 2.1269-0.66702 0.35239-1.3781 0.78029-2.1269 1.2963-0.9376 0.66073-2.9198 1.6864-5.934 3.0771-4.5244 2.1206-7.2554 3.7253-8.193 4.8013-0.9376 1.0886-1.076 2.5234-0.45307 4.3105 0.47195 1.3655 0.88097 2.9198 1.2082 4.6629 0.95649 5.2292 1.7745 8.621 2.473 10.175l0.54746-0.21395c1.1516-0.43419 3.3477-1.6046 6.5884-3.5239 3.2407-1.9318 5.6194-3.4672 7.1485-4.6125 3.1023-2.3975 5.5816-4.0147 7.4128-4.8516 2.989-1.3403 4.839-1.2208 5.5564 0.38386 0.88097 1.957 0.4279 3.6057-1.3655 4.9397-1.7934 1.3466-5.6886 3.7882-11.698 7.3372-7.3498 4.3419-11.125 6.9723-11.32 7.8847-0.21395 0.91243 0.23912 3.3414 1.3278 7.3058 1.1012 3.9518 1.8878 6.4437 2.3472 7.4631l0.1762 0.40273c0.66073 1.139 1.7368 1.4725 3.2092 0.99424l0.65444-0.24541c1.3529-0.52859 2.8694-1.3403 4.5496-2.4416l6.4122-4.1028c2.3975-1.5102 4.7887-3.1023 7.1988-4.7572 2.9576-2.171 4.8831-3.4484 5.7704-3.8574 0.65444-0.29576 1.5291-0.35239 2.6178-0.1699 1.076 0.19507 1.8815 0.89356 2.4353 2.108 0.39015 0.88726 0.46566 1.592 0.18249 2.1206-1.9507 2.1647-4.8139 4.1909-8.6021 6.041-3.2659 1.6235-8.193 4.5055-14.781 8.6902-3.3162 2.1332-5.525 3.4547-6.6513 3.9518-2.8002 1.2711-4.6377 1.8249-5.5501 1.7116-0.89985-0.11957-1.8123-1.0131-2.731-2.6618l-0.6859-1.1516-0.0692-0.14473c-0.17619-0.39014-0.30204-1.2585-0.39643-2.6177-0.16991-1.9696-0.93132-5.5061-2.278-10.616-1.3466-5.1034-2.5108-9.0992-3.5302-11.969-0.31463-1.0194-0.64185-2.2528-0.99424-3.7378-1.5228-6.1668-3.0394-10.924-4.5307-14.228-0.0818-0.1762-0.52229-0.50971-1.3152-1.0005-0.18878-0.0944-0.32093-0.17619-0.41532-0.23912-0.40273-0.47824-0.7677-0.86838-1.076-1.1516-0.30834-0.27059-0.57892-0.61668-0.78029-1.0698l-0.16361-0.35868c-0.23283-0.52229-0.12585-1.139 0.3398-1.8249 0.45308-0.69848 0.98795-1.183 1.5795-1.4536l0.10698-0.0566c1.0068-0.44678 2.1836-0.89355 3.5365-1.3278l0.14473-0.0692c0.54746-0.24541 3.096-1.6738 7.633-4.2664 4.537-2.6052 9.8543-5.9466 15.927-10.037 0.64185-0.4342 1.032-0.6859 1.1767-0.74254l0.52229-0.28317c1.806-0.95648 3.1715-1.3529 4.0839-1.183 0.92502 0.16991 1.7871 0.91873 2.5989 2.2591 0.29576 0.67331 0.28317 1.4473-0.0566 2.3472-0.3461 0.89985-0.67961 1.4473-1.0131 1.6676z"/><path d="m405.7 107.37c-1.0635 6.0472-2.6492 10.974-4.751 14.781-2.1017 3.8008-4.4867 6.387-7.161 7.7148-1.7997 0.90615-3.7441 0.92502-5.8081 0.0629-2.0766-0.86209-3.7064-2.4919-4.9083-4.8831-3.096-6.1542-3.656-14.165-1.7242-24.013 1.9318-9.8669 5.6319-16.16 11.056-18.878 1.9633-0.98795 3.9833-0.59151 6.0724 1.1704 0.67961 0.59151 1.3529 0.72995 2.0136 0.39644 1.8689-0.93761 3.1652-0.67332 3.8889 0.774 0.37127 0.72365 0.76141 1.7745 1.1578 3.1589 2.1898 7.5449 3.9958 12.73 5.4243 15.562 2.838 5.6571 5.6068 8.5077 8.3315 8.558 1.3152 0.044 2.171 0.47824 2.5863 1.2963 0.35868 0.72366 0.22654 1.7053-0.40902 2.9513-0.63556 1.246-1.4284 2.1018-2.3535 2.5674-1.8123 0.90614-3.914 0.40273-6.3241-1.4788-2.4227-1.9004-4.7761-5.1411-7.0792-9.7347zm-12.044-18.683c-3.0897 1.548-5.2355 6.2486-6.4248 14.089-1.1893 7.8407-0.83064 13.68 1.0886 17.494 1.3466 2.687 2.9135 3.5868 4.688 2.6933 2.58-1.29 4.8453-5.6823 6.8024-13.164 1.9696-7.4757 1.85-13.41-0.33351-17.764-1.6801-3.3477-3.6057-4.4615-5.8144-3.3603z"/><path d="m431.16 68.824c2.4227-1.1956 4.6943-2.3597 6.8087-3.4987 2.0892-1.1138 3.8637-1.9633 5.3236-2.536 1.8438-0.73624 3.096-1.0257 3.7127-0.88097s1.1012 0.63556 1.441 1.4976c0.77399 1.9696-0.16991 3.5805-2.8569 4.8454-3.4358 1.6298-6.5695 3.2156-9.3886 4.7887-2.8065 1.5606-4.279 2.5171-4.4112 2.8694-0.13215 0.33351 0.27687 3.5239 1.2334 9.5586 0.95648 6.0284 1.7556 9.8732 2.4101 11.522 1.0635 2.6744 2.1143 4.3231 3.1778 4.9334 1.0635 0.61039 2.2968 0.62927 3.7001 0.0755 2.0892-0.83064 4.3797-3.5554 6.8653-8.1679 0.93132-1.8563 1.7808-2.9512 2.5548-3.247 1.0446-0.42161 1.7808-0.0629 2.2339 1.0446 0.69219 1.7556-0.0944 4.6943-2.366 8.8097-2.2591 4.128-5.1537 6.8842-8.6839 8.2811-5.8899 2.3409-10.207 0.044-12.957-6.903-0.99424-2.5045-1.9256-6.6262-2.7939-12.365-0.87468-5.7074-1.5228-9.0866-1.9444-10.131-0.13844-0.35868-0.50971-0.4279-1.0886-0.19507l-3.6623 1.8312c-3.1149 1.2397-5.1726 0.6041-6.1542-1.8689-0.56005-1.4158-0.11956-2.3975 1.3089-2.9701l7.5197-2.9764c0.50971-0.20137 0.86839-0.61039 1.0823-1.2271 0.20766-0.61668 0.16361-2.4038-0.12585-5.3362-0.29576-2.9387-0.66073-5.8207-1.1075-8.6335-0.41532-2.7876 0.21395-4.5056 1.9193-5.1914 1.0446-0.42161 2.0074-0.37127 2.882 0.13215 0.87468 0.49082 1.4284 1.0635 1.6864 1.6927 0.13844 0.33351 0.39014 2.2528 0.75512 5.7389l0.91873 8.514z"/></g><path d="m216.96 129.72c0.19507 0.21395 0.1699 0.84951-0.044 1.8941-0.22024 1.076-0.49083 1.8689-0.83063 2.3723l0.15731 1.6738c0.22025 3.1086 0.52229 5.7012 0.93761 7.7588 0.47195 2.7499 0.88727 5.6823 1.2522 8.8097 0.83063 7.1673 1.957 13.397 3.3666 18.67 1.4221 5.2795 2.9198 9.0866 4.5056 11.44 0.99424 1.4851 1.5983 2.4856 1.8249 3.0142 0.20766 0.52229 0.2517 1.1012 0.12585 1.7179-0.22653 1.1012-0.78658 1.957-1.6738 2.5737-0.89355 0.6041-1.85 0.80546-2.8694 0.5978-3.1841-0.65443-5.9969-6.4688-8.451-17.475-1.0068-4.3356-1.6801-6.5444-2.064-6.6199-1.1956-0.24542-3.8259-0.41532-7.9225-0.49712-4.0839-0.0944-7.8595 0.0252-11.32 0.32092-1.9759 0.19508-3.2218 0.23283-3.719 0.12586-0.62297-0.12586-1.2082-0.56634-1.7556-1.334-0.0944-0.12585-0.23912-0.20765-0.41532-0.24541-0.54746-0.11327-2.0514 1.2711-4.5433 4.1406-4.0839 4.7572-6.6262 7.5638-7.6267 8.4385-0.99424 0.88726-1.9633 1.2208-2.9198 1.0257-0.66073-0.13844-1.397-0.69849-2.1773-1.6738-0.78029-0.98795-1.0823-1.8878-0.91873-2.7058 0.16361-0.80546 0.83063-1.7871 2.0074-2.9701 1.183-1.1704 3.5679-3.5302 7.1799-7.0918 6.4311-6.299 11.994-12.308 16.688-18.035 7.4505-9.1118 12.088-14.435 13.9-15.983 1.8123-1.5354 3.1149-2.2276 3.8889-2.064 1.6424 0.3398 2.7876 1.0383 3.4106 2.1143zm-3.8448 30.243c-0.46565-2.1898-0.98795-6.1039-1.5858-11.774-0.67961-6.041-1.1264-9.7348-1.3718-11.05-1.9696 2.6052-4.9272 6.2864-8.8789 11.018l-9.4012 11.446c0.60409-0.28946 2.0577-0.32092 4.3356-0.11956 1.7494 0.18878 3.2911 0.26429 4.6188 0.258 7.073 0.0189 11.163 0.10068 12.283 0.22024zm29.166 23.799c-1.29 4.5811-2.5045 11.006-3.6749 19.281l-1.1327 7.2051c-0.18878 1.0194-0.66702 2.0325-1.4473 3.0268-0.76142 1.0005-1.4725 1.4976-2.108 1.4976-0.79287-6e-3 -1.6738-0.42161-2.6807-1.2271-0.99424-0.81804-1.4788-1.4599-1.4788-1.9444 0.0126-1.4096 0.3398-3.3414 1.0005-5.8144 4.8139-18.79 7.2932-35.321 7.4253-49.561l-6e-3 -3.2092c-0.0252-2.7562 0.47194-4.7572 1.4976-5.9906 1.0383-1.246 2.2024-1.8626 3.5302-1.85 0.61039 6e-3 1.1893 0.49712 1.7431 1.4536 0.55375 0.95648 0.81175 2.3157 0.79287 4.0776-0.0252 2.4667-0.29575 5.4683-0.83692 8.9733-0.70478 4.43-1.0635 6.9849-1.0949 7.6393 3.8448-6.5821 7.8973-11.723 12.164-15.404 4.2727-3.6812 8.2245-5.5124 11.868-5.4746 2.5611 0.0252 4.7069 1.0131 6.4563 2.945 1.7494 1.9507 2.6115 4.3419 2.5863 7.2051-0.0755 8.3-3.3162 15.832-9.7348 22.547-6.4059 6.7268-12.623 10.049-18.626 9.9927-1.5102-0.0126-2.687-0.40273-3.5491-1.1704-0.87468-0.78029-1.7745-2.1836-2.6933-4.2035zm23.925-30.557c-3.5742-0.0315-8.0357 3.2911-13.378 9.9676-5.3425 6.6828-8.0231 11.893-8.0609 15.637-6e-3 0.92502 0.50341 1.8186 1.5354 2.6933 1.032 0.88726 2.3409 1.3278 3.9392 1.3403 3.6372 0.0378 7.8344-2.6303 12.604-7.9728 4.7824-5.3488 7.1799-10.609 7.2303-15.82 0.0189-1.8689-0.3461-3.2911-1.076-4.3168-0.74253-1.0131-1.6738-1.5165-2.7939-1.5291zm24.881 27.115c0.044 4.7635 0.67331 11.27 1.8626 19.545l0.92502 7.2366c0.10068 1.032-0.0755 2.1332-0.54117 3.3099-0.45307 1.1704-0.99424 1.85-1.6046 2.0262-0.76141 0.21395-1.7242 0.0629-2.9135-0.4279-1.183-0.5097-1.8312-0.98795-1.9633-1.4536-0.38385-1.3592-0.6041-3.3036-0.66073-5.8585-0.62927-19.388-2.8694-35.95-6.7268-49.662l-0.90615-3.0834c-0.79287-2.6366-0.87468-4.7006-0.23912-6.1731 0.64815-1.4851 1.592-2.4038 2.8694-2.7625 0.58522-0.16361 1.2837 0.14473 2.0766 0.90614 0.79288 0.76771 1.4284 2.0011 1.9004 3.6938 0.66702 2.3723 1.2396 5.3299 1.7053 8.8475 0.56004 4.4489 0.93131 7.0037 1.0823 7.6393 1.85-7.3939 4.2979-13.466 7.375-18.192 3.0708-4.7258 6.3556-7.589 9.8606-8.5769 2.4667-0.69219 4.8013-0.3461 7.0226 1.0194 2.2276 1.3844 3.719 3.4421 4.493 6.192 2.2465 7.9917 1.2396 16.128-3.0456 24.365-4.2664 8.2497-9.3068 13.183-15.09 14.807-1.4536 0.40903-2.6933 0.36498-3.7378-0.13214-1.0572-0.50341-2.3094-1.5983-3.7567-3.2848zm14.429-36.025c-3.4421 0.96907-6.7961 5.4117-10.056 13.309-3.2596 7.9099-4.3797 13.668-3.3666 17.273 0.25171 0.89356 0.99424 1.6046 2.2276 2.1521 1.2396 0.56004 2.6177 0.61668 4.1594 0.18878 3.505-0.98795 6.7898-4.7132 9.8732-11.182 3.096-6.4688 3.9266-12.195 2.5171-17.21-0.50341-1.7934-1.2522-3.0645-2.2402-3.8448-1.0005-0.76141-2.0325-0.98795-3.1086-0.6859z" fill="#cf2832" stroke-width=".62927"/><g fill="#6ba431" stroke-width=".62927"><path d="m519.39 50.355c-0.0755 0.0126-0.72365-0.044-1.9633-0.1699-1.2271-0.11956-2.4919-0.0881-3.8008 0.11326-1.3152 0.22654-2.4667 0.33981-3.4736 0.3461-0.69849 6e-3 -1.4599 0.0503-2.2842 0.14473-1.0446 0.12585-3.0771 0.0944-6.1039-0.0692-4.5748-0.23283-7.4694-0.10068-8.6839 0.36498-1.2145 0.47195-1.957 1.5606-2.215 3.2722-0.20137 1.3089-0.55376 2.731-1.032 4.2853-1.4851 4.6251-2.2779 7.7211-2.366 9.2817l0.54117 0.0629c1.1138 0.15102 3.398 0.14473 6.8275-0.0252 3.4484-0.15102 6.0221-0.37127 7.7526-0.64185 3.5365-0.6041 6.236-0.8621 8.0735-0.74254 2.9764 0.20137 4.4174 1.0949 4.3231 2.6996-0.13214 1.957-1.2082 3.096-3.2281 3.4043-2.0262 0.32093-6.2172 0.61669-12.598 0.89985-7.8029 0.3461-11.975 0.84951-12.541 1.4977-0.55375 0.64814-1.2396 2.8002-2.0577 6.4751-0.80546 3.6623-1.2459 6.0158-1.3152 7.0415l-0.0252 0.39015c0.044 1.2019 0.76141 1.9318 2.1584 2.1836l0.64814 0.0881c1.3089 0.15102 2.882 0.15102 4.7069-0.0252l6.9408-0.56005c2.5863-0.18249 5.1977-0.44049 7.8658-0.74254 3.3099-0.48453 5.4243-0.69219 6.3052-0.64185 0.66073 0.0378 1.397 0.37756 2.1773 0.99424 0.79287 0.61668 1.1453 1.5291 1.0634 2.7562-0.0566 0.88097-0.30204 1.4662-0.76141 1.7871-2.5045 0.90615-5.6823 1.3026-9.546 1.1704-3.3225-0.0944-8.5454 0.12585-15.662 0.67331-3.5931 0.29576-5.9466 0.40903-7.0792 0.32722-2.7939-0.17619-4.5244-0.516-5.204-1.0005-0.67332-0.49712-1.032-1.5983-1.0572-3.3288l-0.0692-1.2271 0.0126-0.14473c0.0252-0.37756 0.28946-1.139 0.79916-2.2905 0.70478-1.6487 1.6109-4.8328 2.7247-9.5334 1.1075-4.7006 1.8752-8.4259 2.2968-11.182 0.17619-0.95649 0.44048-2.0955 0.79287-3.4421 1.4284-5.6445 2.2528-10.125 2.4667-13.447 0-0.15732-0.20765-0.62927-0.62926-1.3655-0.10698-0.15731-0.19507-0.28317-0.23283-0.38385-0.13215-0.55375-0.26429-1.0194-0.38385-1.3907-0.14473-0.34609-0.18878-0.74882-0.16361-1.2019l0.0252-0.35238c0.0252-0.52859 0.38385-0.96907 1.0509-1.3278 0.67332-0.36497 1.3026-0.53487 1.9004-0.49082h0.11326c1.0068 0.0692 2.1458 0.22024 3.4295 0.44678h0.13215c0.55375 0.0378 3.2218-0.0189 8.0043-0.16361 4.7824-0.14473 10.509-0.56634 17.173-1.2522 0.69849-0.0818 1.1138-0.10698 1.2648-0.10069l0.54116 6e-3c1.8752 0 3.1526 0.27687 3.8196 0.80546 0.67331 0.52858 1.0446 1.5102 1.1264 2.9387-0.0503 0.66073-0.40273 1.2837-1.0635 1.8689-0.65443 0.58522-1.1704 0.88726-1.5228 0.91244z"/><path d="m552.68 98.984c-4.9712 2.58-9.4327 4.172-13.359 4.751-3.9329 0.59151-7.1233 0.28946-9.5774-0.89356-1.655-0.80546-2.7499-2.2024-3.2785-4.1909-0.51599-1.9885-0.2517-4.0714 0.81176-6.2675 2.7499-5.6697 8.2371-10.534 16.468-14.605s14.844-4.902 19.834-2.4667c1.8123 0.88097 2.6492 2.5611 2.5359 5.0593-0.0629 0.82434 0.22025 1.3718 0.82434 1.6676 1.7179 0.84322 2.2591 1.9193 1.6109 3.2596-0.32722 0.67331-0.88097 1.5354-1.6613 2.5926-4.2476 5.783-6.9974 9.9802-8.2686 12.579-2.5296 5.2166-3.0519 8.8097-1.5794 10.804 0.69848 0.98165 0.86209 1.8374 0.49712 2.5989-0.32093 0.66073-1.1138 1.1201-2.366 1.3403-1.2522 0.23283-2.3031 0.13844-3.1778-0.27688-1.655-0.80546-2.4667-2.6177-2.4353-5.418 0.0315-2.8065 1.0823-6.3178 3.1275-10.534zm6.8653-19.136c-2.8317-1.3718-7.4316-0.32092-13.787 3.1841-6.3619 3.4924-10.389 6.9911-12.088 10.502-1.2082 2.4793-0.98795 4.1091 0.64814 4.902 2.366 1.1516 6.8024 0.35868 13.328-2.3849 6.5192-2.731 10.754-6.0976 12.699-10.112 1.4914-3.0645 1.2334-5.1034-0.79287-6.0913z"/><path d="m582.5 123.97c0.95019-1.2334 0.5097-3.8008-1.3152-7.7085-2.3472-4.9397-3.7252-8.5266-4.172-10.748-0.44678-2.2339-0.10698-4.0714 1.0194-5.5375 2.9009-3.7756 7.1988-5.4494 12.894-5.0341 5.6886 0.42791 9.741 1.5606 12.126 3.398 1.5417 1.1704 2.4541 2.3031 2.731 3.3603 0.28946 1.0698-0.0692 2.2528-1.0823 3.5616-0.44678 0.58521-1.0823 0.89985-1.9067 0.92502-0.83064 0.0315-1.3844-0.0566-1.6676-0.27688-0.20766-0.15732-0.5097-0.61668-0.89985-1.3655-0.40273-0.73624-0.69219-1.1704-0.88726-1.3152-0.93761-0.72995-3.4043-1.5228-7.3687-2.3598-3.9707-0.84951-6.6199-0.39644-7.9602 1.3403-0.81176 1.0635-1.0383 2.4227-0.67961 4.0776 0.35868 1.6424 1.3781 4.1154 3.0708 7.419 1.3592 2.6681 2.2339 5.0719 2.6177 7.2366 0.38386 2.1458-0.0315 4.0084-1.2396 5.5879-2.2339 2.9072-5.9843 3.6372-11.239 2.2087-5.267-1.4473-9.7222-3.5616-13.372-6.3619-3.0645-2.366-3.8071-4.5936-2.2024-6.6828 0.55375-0.72366 1.3152-0.98795 2.2716-0.78659 0.95648 0.18878 1.7745 0.54746 2.4856 1.0886 0.28317 0.22025 0.74253 0.72366 1.4033 1.5354 0.63556 0.78659 1.0635 1.2648 1.3152 1.4662 2.1017 1.6172 4.6314 3.0016 7.5826 4.1532 2.9513 1.1516 5.1096 1.4221 6.4814 0.81175z"/><path d="m628.41 109.73c-0.38385-0.3398-0.31463-0.98794 0.20766-1.9759 0.14473-0.32093 0.28946-0.67332 0.43419-1.0949 0.54117-1.5983 1.1956-2.8254 1.9507-3.6875 0.63556-0.71737 1.699-1.076 3.203-1.0635 1.5102 0 2.7876 0.45936 3.8322 1.3718 0.516 0.46566 0.92502 1.183 1.2145 2.1521 0.28946 0.98165 0.27058 1.655-0.0629 2.0262-0.52229 0.59151-1.6235 1.4096-3.3225 2.4353-1.6864 1.0383-3.2281 1.3781-4.6314 1.0194-1.3844-0.34609-2.3346-0.74882-2.838-1.183zm-30.022 26.989c-1.1956 1.3529-2.3597 3.0708-3.4861 5.0971-0.20766 0.39643-0.41532 0.69219-0.5978 0.91243-0.28946 0.32093-0.95019 0.47195-1.9948 0.46566-1.0446-6e-3 -1.9004-0.30834-2.5674-0.89356-1.7368-1.5354-1.2019-3.9014 1.6109-7.0981 2.9135-3.3036 8.193-7.935 15.858-13.882 2.6618-2.0892 4.2476-3.4106 4.7447-3.9895 1.0005-1.1327 2.0577-1.913 3.1715-2.3472 1.1138-0.4342 2.0577-0.32093 2.8128 0.3398 0.91243 0.80546 1.4473 1.6613 1.5858 2.5674 0.13844 0.90615-0.0252 1.6298-0.50342 2.171-0.47194 0.54117-1.2208 1.1327-2.2465 1.806-5.5187 3.5554-9.3446 6.2108-11.478 7.9791-2.1206 1.7556-4.4237 4.0462-6.9093 6.8716z"/><path d="m634.73 165.49c-1.7494 1.6927-5.3739 2.215-10.861 1.5165-5.4872-0.67961-9.8291-2.6807-13.038-5.9717-2.6933-2.7625-3.9644-5.676-3.8008-8.7657 0.17619-3.0897 1.7116-6.0598 4.6251-8.8978 4.9083-4.7761 11.188-7.6708 18.834-8.6839 7.6582-1.0005 13.384 0.46566 17.217 4.3923 1.2585 1.2837 1.8626 2.7436 1.8123 4.3734-0.044 1.6424-0.65443 3.0394-1.8374 4.1846-2.6492 2.5737-6.4311 3.7504-11.377 3.5176-4.9523-0.23912-10.698-1.3844-17.254-3.4484-1.334-0.43419-2.366-0.29575-3.1023 0.42161-1.4284 1.3781-2.1647 2.9072-2.2213 4.5622-0.044 1.6676 0.70477 3.3036 2.2779 4.9083 3.5994 3.6875 9.3006 5.462 17.122 5.3299 1.1264 6e-3 1.8249 0.15731 2.108 0.45307 0.53487 0.54117 0.35868 1.2522-0.50342 2.108zm-13.422-21.791c11.409 3.0582 18.431 3.3036 21.049 0.74253 1.0383-1.0005 1.1012-1.9696 0.18878-2.8946-1.5354-1.5795-4.4237-2.2213-8.6713-1.9507-4.2412 0.28317-8.4322 1.6424-12.566 4.0965z"/><path d="m646.98 175.62c0.47824-0.10697 1.1201-0.28946 1.9193-0.54116 3.8826-1.2334 7.0792-2.0325 9.5711-2.4101 2.4919-0.36498 5.0215-0.57893 7.5575-0.62298 2.5359-0.0315 4.6314 0.11956 6.2738 0.47195 1.655 0.35239 2.989 0.81805 4.0147 1.3907s1.8815 1.2396 2.5485 2.0136c1.3718 1.5669 2.0262 3.2659 1.9507 5.0782-0.0881 1.8249-0.76141 3.2785-2.0136 4.386-0.55375 0.48454-1.2208 0.74883-1.9696 0.79288-0.76141 0.0441-1.4536-0.29576-2.0892-1.0068-0.66703-0.7677-0.93132-1.7494-0.82434-2.9638 0.10697-1.2397-0.15732-2.2087-0.774-2.9135-1.6298-1.8752-6.1731-2.473-13.624-1.8123s-14.221 3.0142-20.306 7.0792c-1.5669 1.0446-2.7939 1.5102-3.6875 1.4096-0.89356-0.11956-1.7368-0.62297-2.5422-1.548-0.78029-0.87468-0.6859-2.1018 0.28317-3.6372 0.98165-1.548 3.0205-3.6938 6.1416-6.4185 0.83693-0.74253 2.7499-2.3346 5.7074-4.7635 3.4987-2.8694 6.4374-5.0656 8.816-6.5695 0.39015-0.24541 1.2711-0.86209 2.6492-1.8312 1.4914-1.0949 2.5989-1.7745 3.3036-2.064 0.71107-0.28946 1.548-0.33351 2.5359-0.1699 0.98165 0.17619 1.7619 0.61668 2.3723 1.29 0.58522 0.66702 0.81175 1.3529 0.67332 2.064-0.12586 0.69849-0.44049 1.2585-0.93132 1.6864-0.69219 0.62297-1.85 1.3089-3.4358 2.0703-1.7934 0.82434-2.989 1.441-3.5931 1.8375-0.65444 0.48453-1.3781 0.9439-2.1773 1.3844-0.93761 0.50971-3.1274 2.108-6.5821 4.8076l-1.0257 0.8495-0.72995 0.64815z"/></g></g>
 
</svg>
