<svg width="54" height="60" viewBox="0 0 54 60" fill="none" xmlns="http://www.w3.org/2000/svg">
<path d="M53.3333 40C53.3333 37.037 48.8889 37.037 48.8889 40H53.3333ZM48.8889 40V48.8889H4.44444V4.44444H48.8889V13.3333H11.1111C8.14815 13.3333 8.14815 17.7778 11.1111 17.7778H48.8889V31.1111V40ZM48.8889 31.1111C49.0705 33.0751 53.3333 34.0741 53.3333 31.1111H48.8889ZM53.3333 31.1111V4.44444C53.3333 1.98985 51.3435 0 48.8889 0H4.44444C1.98985 0 0 1.98985 0 4.44444V57.7778C0 59.0051 0.994923 60 2.22222 60H11.1111C11.8545 59.9962 12.5467 59.6209 12.9556 59L16.7556 53.3333H36.5778L40.3778 59C40.7866 59.6209 41.4788 59.9962 42.2222 60H51.1111C52.3384 60 53.3333 59.0051 53.3333 57.7778V40V31.1111ZM48.8889 53.3333V55.5556H43.4222L41.9333 53.3333H48.8889ZM11.4 53.3333L9.91111 55.5556H4.44444V53.3333H11.4Z" fill="#77838F"/>
<path d="M11.1109 22.2222C10.5215 22.2222 9.95629 22.4563 9.53955 22.873C9.1228 23.2898 8.88867 23.855 8.88867 24.4444V42.2222C8.88867 42.8115 9.1228 43.3768 9.53955 43.7935C9.95629 44.2103 10.5215 44.4444 11.1109 44.4444H42.222C42.8114 44.4444 43.3766 44.2103 43.7934 43.7935C44.2101 43.3768 44.4442 42.8115 44.4442 42.2222V24.4444C44.4442 23.855 44.2101 23.2898 43.7934 22.873C43.3766 22.4563 42.8114 22.2222 42.222 22.2222H11.1109ZM39.9998 39.9999H13.3331V26.6666H39.9998V39.9999Z" fill="#77838F"/>
<path d="M11.1109 11.1112H19.9998C20.5892 11.1112 21.1544 10.8771 21.5711 10.4603C21.9879 10.0436 22.222 9.47834 22.222 8.88897C22.222 8.2996 21.9879 7.73437 21.5711 7.31762C21.1544 6.90087 20.5892 6.66675 19.9998 6.66675H11.1109C10.5215 6.66675 9.95629 6.90087 9.53955 7.31762C9.1228 7.73437 8.88867 8.2996 8.88867 8.88897C8.88867 9.47834 9.1228 10.0436 9.53955 10.4603C9.95629 10.8771 10.5215 11.1112 11.1109 11.1112V11.1112Z" fill="#77838F"/>
<path d="M44.4444 8.88897C44.4444 8.2996 44.2103 7.73437 43.7936 7.31762C43.3768 6.90087 42.8116 6.66675 42.2222 6.66675C41.7827 6.66675 41.3531 6.79708 40.9876 7.04126C40.6222 7.28544 40.3374 7.63251 40.1692 8.03856C40.001 8.44462 39.957 8.89144 40.0427 9.3225C40.1284 9.75357 40.3401 10.1495 40.6509 10.4603C40.9617 10.7711 41.3576 10.9827 41.7887 11.0685C42.2198 11.1542 42.6666 11.1102 43.0726 10.942C43.4787 10.7738 43.8258 10.489 44.0699 10.1236C44.3141 9.75813 44.4444 9.32848 44.4444 8.88897V8.88897Z" fill="#77838F"/>
<path d="M37.7784 8.88897C37.7784 8.2996 37.5443 7.73437 37.1276 7.31762C36.7108 6.90087 36.1456 6.66675 35.5562 6.66675C35.1167 6.66675 34.687 6.79708 34.3216 7.04126C33.9562 7.28544 33.6713 7.63251 33.5031 8.03856C33.3349 8.44462 33.2909 8.89144 33.3767 9.3225C33.4624 9.75357 33.6741 10.1495 33.9849 10.4603C34.2956 10.7711 34.6916 10.9827 35.1227 11.0685C35.5537 11.1542 36.0006 11.1102 36.4066 10.942C36.8127 10.7738 37.1597 10.489 37.4039 10.1236C37.6481 9.75813 37.7784 9.32848 37.7784 8.88897V8.88897Z" fill="#77838F"/>
</svg>
