<svg width="60" height="42" viewBox="0 0 60 42" fill="none" xmlns="http://www.w3.org/2000/svg">
<path d="M38.9579 16.9201V17.8974L39.935 17.9198L56.115 18.2903C57.6218 18.3248 59 19.7002 59 21.6521V24.2089C59 26.2065 57.593 27.6035 56.1608 27.5707L40.0613 27.2021C40.09 27.1758 40.1183 27.1486 40.1461 27.1207C40.5648 26.7004 40.835 26.1433 40.9248 25.4949L56.1171 25.8103C57.1081 25.8308 57.6706 24.9546 57.6706 24.2089V21.6521C57.6706 20.8628 57.0806 20.0719 56.1609 20.0508L56.1608 20.0508L39.9808 19.6803L38.9579 19.6569V20.6801V23.4536L38.3139 23.4403C38.0727 23.4352 37.8436 23.4636 37.6285 23.5202V16.9201V15.9229L36.6313 15.9201L10.9932 15.8489V14.1377C10.9932 14.1214 10.9933 14.1052 10.9934 14.089L36.6257 14.1601L37.8402 14.1635L37.6104 12.9709C37.1134 10.3911 35.0481 8.40232 32.5009 8.40012H32.5H14.1882C11.8809 8.40012 10.0322 10.0107 9.31509 12.154C8.72901 12.2881 8.24782 12.6124 7.9021 13.0507C7.82815 13.1445 7.76124 13.2422 7.7011 13.343C8.05785 9.48753 10.9202 6.64902 14.1894 6.64014H19.473H20.473V5.64014V1.88016C20.473 1.26081 20.8912 0.996491 21.1223 1.00005L25.9278 1.07414C26.2091 1.07848 26.6079 1.36567 26.6079 1.95425V5.71423V6.7297L27.6233 6.71411L32.4395 6.64017C35.9271 6.65413 38.9496 9.88791 38.9579 14.1396V16.9201ZM38.9579 27.8003V28.2V35.72C38.9579 38.4003 37.0588 40.3599 34.9638 40.3599H11.6579C9.56864 40.3599 7.68315 38.4057 7.66372 35.7128L7.59812 26.6184L7.59092 25.6207L6.59313 25.6257L3.85717 25.6394C2.39153 25.6467 0.990432 24.2534 1.00005 22.2827L1.00491 21.2865C1.01458 19.3037 2.40112 17.9201 3.86704 17.9201H6.66375H7.66375V16.9201V16.5167C7.73285 16.6401 7.8117 16.7593 7.90079 16.8727C8.18078 17.2292 8.55023 17.5116 8.99317 17.6784V35.72C8.99317 37.1928 10.0754 38.6 11.6579 38.6H34.9638C36.5463 38.6 37.6285 37.1928 37.6285 35.72V27.8003C37.847 27.8569 38.0707 27.885 38.2932 27.885C38.5156 27.885 38.7394 27.8569 38.9579 27.8003ZM37.8572 25.7092C37.8491 25.7011 37.841 25.6925 37.8328 25.6832C37.9717 25.5131 38.1515 25.4373 38.2724 25.4398L38.8875 25.4526C38.8427 25.5738 38.783 25.6552 38.7292 25.7092C38.6166 25.8222 38.4608 25.885 38.2932 25.885C38.1256 25.885 37.9698 25.8222 37.8572 25.7092ZM22.8525 2.76141L21.8024 2.7087V3.76015V5.64014V6.59121L22.7523 6.63889L24.2284 6.71297L25.2785 6.76568V5.71423V3.83424V2.88318L24.3286 2.8355L22.8525 2.76141ZM7.6633 20.7101L7.69422 19.6801H6.66375H3.86704C2.90577 19.6801 2.33805 20.5186 2.33435 21.2768L2.32949 22.2729C2.32573 23.0432 2.90565 23.8842 3.8672 23.8794L6.60316 23.8657L7.56873 23.8608L7.5977 22.8957L7.6633 20.7101Z" fill="#FF8908" stroke="#77838F" stroke-width="2"/>
</svg>
