<?xml version="1.0" encoding="UTF-8" standalone="no"?>
<svg
   width="82"
   height="82"
   viewBox="0 0 82 82"
   fill="none"
   version="1.1"
   id="svg27"
   sodipodi:docname="res_ico.svg"
   inkscape:version="1.1 (c68e22c387, 2021-05-23)"
   xmlns:inkscape="http://www.inkscape.org/namespaces/inkscape"
   xmlns:sodipodi="http://sodipodi.sourceforge.net/DTD/sodipodi-0.dtd"
   xmlns="http://www.w3.org/2000/svg"
   xmlns:svg="http://www.w3.org/2000/svg">
  <defs
     id="defs31" />
  <sodipodi:namedview
     id="namedview29"
     pagecolor="#ffffff"
     bordercolor="#666666"
     borderopacity="1.0"
     inkscape:pageshadow="2"
     inkscape:pageopacity="0.0"
     inkscape:pagecheckerboard="0"
     showgrid="false"
     inkscape:zoom="9.5487805"
     inkscape:cx="40.947637"
     inkscape:cy="45.189017"
     inkscape:window-width="1920"
     inkscape:window-height="1001"
     inkscape:window-x="-9"
     inkscape:window-y="-9"
     inkscape:window-maximized="1"
     inkscape:current-layer="svg27" />
  <path
     d="m 45.2183,19.2222 h -0.0012 c -0.9642,0 -1.9067,0.2859 -2.7084,0.8216 -0.8017,0.5357 -1.4265,1.297 -1.7955,2.1878 -0.369,0.8908 -0.4655,1.871 -0.2774,2.8167 0.1881,0.9456 0.6524,1.8143 1.3342,2.496 0.6817,0.6818 1.5504,1.1461 2.496,1.3342 0.9457,0.1881 1.9259,0.0916 2.8167,-0.2774 0.8908,-0.369 1.6522,-0.9938 2.1878,-1.7955 0.5357,-0.8017 0.8216,-1.7442 0.8216,-2.7084 V 24.096 c -0.0015,-1.2921 -0.5155,-2.5309 -1.4292,-3.4446 -0.9137,-0.9137 -2.1525,-1.4277 -3.4446,-1.4292 z"
     id="path2937"
     style="fill:none;fill-opacity:1;stroke:#77838f;stroke-opacity:1;stroke-width:2;stroke-miterlimit:4;stroke-dasharray:none" />
  <path
     id="path23"
     style="fill:none;fill-opacity:1;stroke:#77838f;stroke-width:2;stroke-miterlimit:4;stroke-dasharray:none;stroke-opacity:1"
     sodipodi:type="inkscape:offset"
     inkscape:radius="0"
     inkscape:original="M 45.710938 15.375 C 43.174237 15.3429 40.69555 16.143344 38.65625 17.652344 C 36.61705 19.161444 35.128669 21.297122 34.417969 23.732422 L 34.416016 23.738281 C 30.036816 38.365781 28.311009 42.893959 22.974609 48.568359 L 22.964844 48.578125 C 21.761944 49.822025 20.862938 51.326409 20.335938 52.974609 C 19.809238 54.622009 19.668281 56.369878 19.925781 58.080078 C 20.172581 59.657178 20.779119 61.154584 21.699219 62.458984 C 22.619919 63.764184 23.830475 64.839962 25.234375 65.601562 L 25.25 65.609375 L 25.263672 65.619141 C 26.355772 66.261241 27.596581 66.6075 28.863281 66.625 C 30.856381 66.6232 33.360497 65.767531 36.966797 63.519531 C 40.564597 61.276931 45.146931 57.722934 51.269531 52.490234 C 60.509131 44.593634 62.267213 37.103553 62.195312 32.314453 L 62.195312 32.304688 C 62.183112 29.827687 61.623941 27.383737 60.556641 25.148438 C 59.489941 22.914337 57.942591 20.945306 56.025391 19.378906 C 52.729491 16.730706 49.165156 15.375 45.722656 15.375 L 45.710938 15.375 z "
     d="m 45.710938,15.375 c -2.536701,-0.0321 -5.015388,0.768344 -7.054688,2.277344 -2.0392,1.5091 -3.527581,3.644778 -4.238281,6.080078 l -0.002,0.0059 c -4.3792,14.6275 -6.105007,19.155678 -11.441407,24.830078 l -0.0098,0.0098 c -1.2029,1.2439 -2.101906,2.748284 -2.628906,4.396484 -0.5267,1.6474 -0.667657,3.395269 -0.410157,5.105469 0.2468,1.5771 0.853338,3.074506 1.773438,4.378906 0.9207,1.3052 2.131256,2.380978 3.535156,3.142578 l 0.01563,0.0078 0.01367,0.0098 c 1.0921,0.6421 2.332909,0.988359 3.599609,1.005859 1.9931,-0.0018 4.497216,-0.857469 8.103516,-3.105469 3.5978,-2.2426 8.180134,-5.796597 14.302734,-11.029297 9.2396,-7.8966 10.997682,-15.386681 10.925781,-20.175781 v -0.0098 c -0.0122,-2.477001 -0.571371,-4.920951 -1.638671,-7.15625 -1.0667,-2.234101 -2.61405,-4.203132 -4.53125,-5.769532 C 52.729491,16.730706 49.165156,15.375 45.722656,15.375 Z" />
  <path
     fill-rule="evenodd"
     clip-rule="evenodd"
     d="M71 2H11C6.02944 2 2 6.02944 2 11V71C2 75.9706 6.02944 80 11 80H71C75.9706 80 80 75.9706 80 71V11C80 6.02944 75.9706 2 71 2ZM11 1C5.47715 1 1 5.47715 1 11V71C1 76.5229 5.47715 81 11 81H71C76.5229 81 81 76.5229 81 71V11C81 5.47715 76.5229 1 71 1H11Z"
     fill="#FF8908"
     stroke="#77838F"
     stroke-width="2"
     id="path25" />
  <path
     id="path3145"
     style="fill:none;fill-opacity:1;stroke:#77838f;stroke-width:2;stroke-miterlimit:4;stroke-dasharray:none;stroke-opacity:1"
     sodipodi:type="inkscape:offset"
     inkscape:radius="4.1127262"
     inkscape:original="M 45.710938 15.375 C 43.174237 15.3429 40.69555 16.143344 38.65625 17.652344 C 36.61705 19.161444 35.128669 21.297122 34.417969 23.732422 L 34.416016 23.738281 C 30.036816 38.365781 28.311009 42.893959 22.974609 48.568359 L 22.964844 48.578125 C 21.761944 49.822025 20.862938 51.326409 20.335938 52.974609 C 19.809238 54.622009 19.668281 56.369878 19.925781 58.080078 C 20.172581 59.657178 20.779119 61.154584 21.699219 62.458984 C 22.619919 63.764184 23.830475 64.839962 25.234375 65.601562 L 25.25 65.609375 L 25.263672 65.619141 C 26.355772 66.261241 27.596581 66.6075 28.863281 66.625 C 30.856381 66.6232 33.360497 65.767531 36.966797 63.519531 C 40.564597 61.276931 45.146931 57.722934 51.269531 52.490234 C 60.509131 44.593634 62.267213 37.103553 62.195312 32.314453 L 62.195312 32.304688 C 62.183112 29.827687 61.623941 27.383737 60.556641 25.148438 C 59.489941 22.914337 57.942591 20.945306 56.025391 19.378906 C 52.729491 16.730706 49.165156 15.375 45.722656 15.375 L 45.710938 15.375 z "
     d="m 45.748047,11.263672 c -3.429992,-0.03992 -6.782126,1.042009 -9.539063,3.082031 -2.761422,2.043577 -4.776131,4.93745 -5.738281,8.234375 C 26.115992,37.124912 24.867145,40.551732 19.978516,45.75 l 0.02539,-0.02539 c -1.640513,1.697995 -2.86753,3.751218 -3.585937,5.998047 -0.718849,2.248399 -0.910421,4.634023 -0.558594,6.970703 a 4.1131375,4.1131375 0 0 0 0.0039,0.02344 c 0.344455,2.20113 1.190677,4.293086 2.47461,6.113281 1.274803,1.807182 2.950536,3.292085 4.888671,4.353516 1.697726,0.987935 3.618254,1.527584 5.580079,1.554687 a 4.1131375,4.1131375 0 0 0 0.06055,0 c 3.167092,-0.0029 6.341382,-1.276237 10.27539,-3.728515 3.92277,-2.445162 8.604951,-6.098961 14.798828,-11.392578 10.015235,-8.559494 12.450686,-17.495682 12.365235,-23.355469 -0.01862,-3.074518 -0.713587,-6.108757 -2.039063,-8.884766 -1.328177,-2.781739 -3.255333,-5.234751 -5.640625,-7.183594 a 4.1131375,4.1131375 0 0 0 -0.02539,-0.01953 C 54.718627,13.053955 50.261608,11.270362 45.748047,11.263672 Z" />
</svg>
